<svg xmlns="http://www.w3.org/2000/svg" width="940" height="209"><g fill="#FFF" fill-rule="evenodd"><path d="M43.166 2.945c5.588 0 10.393.93 14.415 2.788 4.021 1.86 7.248 4.55 9.68 8.072 2.432 3.522 4.058 7.777 4.876 12.764h.42V4.119H83.11v31.973H72.558C70.995 29.135 67.619 23.604 62.43 19.5c-5.19-4.104-11.509-6.155-18.958-6.155-5.857 0-11.013 1.318-15.469 3.956-4.456 2.637-7.94 6.308-10.455 11.014-2.514 4.707-3.77 10.153-3.77 16.34 0 4.688.721 8.981 2.166 12.88 1.444 3.898 3.481 7.265 6.112 10.102 2.631 2.837 5.763 5.024 9.394 6.561 3.632 1.537 7.635 2.305 12.01 2.305 4.93 0 9.379-.956 13.344-2.87 3.965-1.911 7.271-4.615 9.92-8.108 2.647-3.494 4.462-7.594 5.442-12.3l10.871 2.284c-1.33 6.336-3.818 11.858-7.466 16.565-3.649 4.708-8.206 8.356-13.67 10.945-5.465 2.589-11.612 3.883-18.44 3.883-5.964 0-11.452-1.038-16.463-3.112-5.012-2.076-9.341-5-12.99-8.772-3.648-3.773-6.478-8.24-8.49-13.404-2.013-5.163-3.019-10.816-3.019-16.958 0-6.138.995-11.753 2.986-16.845 1.99-5.092 4.8-9.49 8.428-13.192 3.629-3.702 7.925-6.573 12.89-8.613 4.963-2.04 10.418-3.06 16.363-3.06zm80.6 83.752c-6.034 0-11.329-1.275-15.885-3.823-4.556-2.548-8.11-6.067-10.659-10.555-2.55-4.487-3.825-9.655-3.825-15.501 0-5.916 1.274-11.153 3.822-15.714 2.55-4.56 6.1-8.132 10.654-10.717 4.553-2.584 9.847-3.877 15.88-3.877 6.034 0 11.33 1.293 15.885 3.877 4.556 2.585 8.109 6.157 10.66 10.717 2.55 4.56 3.824 9.798 3.824 15.714 0 5.846-1.274 11.014-3.822 15.501-2.548 4.488-6.1 8.007-10.653 10.555-4.554 2.548-9.847 3.823-15.881 3.823zm-.006-9.356c3.89 0 7.321-.848 10.292-2.543 2.971-1.696 5.3-4.08 6.984-7.151 1.686-3.072 2.528-6.682 2.528-10.83 0-4.146-.842-7.792-2.528-10.934-1.684-3.143-4.013-5.597-6.984-7.362-2.97-1.766-6.401-2.649-10.292-2.649s-7.323.883-10.294 2.649c-2.97 1.765-5.298 4.22-6.983 7.362-1.685 3.142-2.528 6.788-2.528 10.935s.843 7.757 2.528 10.829c1.685 3.072 4.012 5.455 6.983 7.151 2.971 1.695 6.403 2.543 10.294 2.543z"/><path d="M183.861 76.889L194.996 76.889 194.996 85.624 162.587 85.624 162.587 76.889 173.716 76.889 173.716 8.735 162.587 8.735 162.587 0 183.861 0z"/><path d="M222.9 76.889L234.036 76.889 234.036 85.624 201.627 85.624 201.627 76.889 212.756 76.889 212.756 8.735 201.627 8.735 201.627 0 222.9 0z"/><path d="M254.907 67.468c1.528 3.089 3.723 5.507 6.584 7.253 2.862 1.747 6.285 2.62 10.27 2.62 4.137 0 7.694-.968 10.672-2.904 2.978-1.936 5.152-4.583 6.525-7.94l9.627 3.64c-2.096 5.122-5.495 9.163-10.198 12.122-4.702 2.958-10.21 4.438-16.524 4.438-6.088 0-11.34-1.272-15.754-3.816-4.414-2.544-7.807-6.062-10.18-10.555-2.373-4.492-3.56-9.662-3.56-15.508 0-5.918 1.204-11.158 3.61-15.721 2.406-4.564 5.781-8.136 10.125-10.716s9.423-3.87 15.237-3.87c5.875 0 10.94 1.279 15.193 3.838 4.254 2.56 7.522 6.118 9.803 10.676 2.283 4.557 3.424 9.808 3.424 15.751 0 .869-.017 1.547-.051 2.038-.034.49-.085.894-.154 1.211h-46.767c.305 2.723 1.011 5.204 2.118 7.443zm16.434-31.807c-3.743 0-7.02.893-9.83 2.676-2.808 1.783-4.993 4.264-6.554 7.44-.975 1.983-1.645 4.163-2.011 6.538h36.538c-.32-2.452-.97-4.708-1.946-6.769-1.454-3.066-3.548-5.48-6.283-7.242-2.735-1.762-6.039-2.643-9.914-2.643zm68.121-9.15c3.883 0 7.06.598 9.536 1.794 2.475 1.197 4.345 2.867 5.613 5.009 1.266 2.14 2.053 4.631 2.36 7.469h.42V27.588h10.144v22.163h-10.143c-.438-2.764-1.378-5.207-2.82-7.33-1.441-2.124-3.326-3.782-5.652-4.974-2.327-1.191-5.037-1.787-8.13-1.787-3.81 0-7.144.893-10.002 2.676-2.859 1.783-5.076 4.264-6.652 7.44-1.577 3.177-2.366 6.857-2.366 11.04 0 4.01.798 7.561 2.394 10.65 1.596 3.09 3.867 5.508 6.813 7.254 2.947 1.747 6.463 2.62 10.55 2.62 4.073 0 7.564-.866 10.471-2.596 2.909-1.731 4.982-4.066 6.222-7.006l9.412 4.159c-1.9 4.6-5.152 8.216-9.758 10.85-4.606 2.632-10.09 3.949-16.449 3.949-6.122 0-11.433-1.272-15.933-3.816-4.5-2.544-7.97-6.062-10.413-10.555-2.442-4.492-3.664-9.662-3.664-15.508 0-4.438.666-8.507 1.997-12.205 1.331-3.698 3.237-6.9 5.719-9.606 2.48-2.705 5.439-4.798 8.873-6.277 3.434-1.48 7.254-2.22 11.458-2.22zm56.424 43.559c0 2.48.453 4.328 1.36 5.544.907 1.216 2.243 1.823 4.01 1.823 1.791 0 3.151-.624 4.08-1.874.927-1.25 1.39-3.081 1.39-5.493v-5.691h9.022v5.588c0 3.562-.512 6.592-1.535 9.092-1.023 2.5-2.617 4.398-4.782 5.694-2.164 1.295-4.957 1.944-8.38 1.944-3.532 0-6.423-.674-8.671-2.021-2.25-1.347-3.918-3.262-5.006-5.745s-1.633-5.437-1.633-8.861l.006-33.746h-9.703v-8.735h9.703V12.957h10.144v14.632h18.921l-.102 8.735h-18.819l-.005 33.746zm50.983 6.83h10.468v8.724h-31.674V76.9h11.062V36.31h-11.062v-8.725h21.206V76.9zM435.16 1.462h12.41v12.952h-12.41V1.463zm72.461 25.047c6.048 0 10.656 1.808 13.822 5.424 3.168 3.616 4.75 8.778 4.75 15.483V76.89h10.376v8.735h-29.657V76.89h9.139V48.762c0-4.21-.972-7.533-2.913-9.967-1.942-2.434-4.907-3.652-8.897-3.652-3.312 0-6.287.846-8.926 2.536-2.64 1.69-4.727 4.12-6.261 7.287-1.535 3.17-2.302 6.97-2.302 11.403v20.52h9.246v8.735h-30.52V76.89h11.13V36.324h-11.13v-8.735h21.274l-.001 17.188.426.001c.592-4.027 1.805-7.392 3.641-10.095 1.836-2.704 4.183-4.742 7.04-6.114 2.857-1.372 6.111-2.059 9.763-2.059zm93.158-1.59c.504 0 .971.019 1.402.056.43.037.829.093 1.194.167v9.874a41.58 41.58 0 0 0-2.096-.244 21.096 21.096 0 0 0-1.839-.08c-1.331 0-2.393.147-3.187.442-.795.295-1.366.702-1.716 1.22-.35.516-.524 1.108-.524 1.776 0 .575.084 1.291.253 2.147.168.856.337 1.84.506 2.95.145.954.227 1.979.248 3.076l.005.554c0 4.075-1.03 7.627-3.092 10.657-2.062 3.03-4.895 5.383-8.5 7.06-3.447 1.604-7.378 2.441-11.792 2.51l-.605.005h-5.105c-2.665 0-4.716.371-6.15 1.113-1.436.74-2.154 1.886-2.154 3.438 0 1.472.693 2.507 2.078 3.104 1.386.598 3.468.896 6.247.896h18.31c3.765 0 6.99.651 9.675 1.953 2.684 1.302 4.732 3.15 6.143 5.544 1.411 2.393 2.117 5.219 2.117 8.477 0 3.39-.92 6.453-2.762 9.19-1.841 2.735-4.92 4.912-9.232 6.529-4.314 1.616-10.197 2.425-17.648 2.425-5.035 0-9.647-.47-13.837-1.41-4.19-.94-7.536-2.426-10.037-4.457-2.5-2.032-3.75-4.684-3.75-7.956 0-3.273 1.275-5.71 3.825-7.309 2.551-1.598 5.812-2.638 9.782-3.116v-.36l-.228-.03c-2.521-.37-4.642-1.088-6.363-2.155-2.631-1.633-3.947-4.007-3.947-7.122 0-2.907 1.177-5.158 3.53-6.75 2.354-1.594 5.644-2.596 9.872-3.008l-.002-.43c-.95-.31-1.87-.67-2.76-1.08-3.639-1.678-6.498-4.031-8.577-7.061-2.08-3.03-3.12-6.582-3.12-10.657 0-4.077 1.031-7.64 3.093-10.688 2.061-3.05 4.903-5.421 8.523-7.117 3.62-1.695 7.78-2.543 12.477-2.543 4.712 0 8.884.855 12.515 2.564 3.45 1.624 6.15 3.854 8.097 6.69l.366-.155a8.623 8.623 0 0 1-.324-2.373c0-1.67.376-3.128 1.126-4.373.75-1.244 1.809-2.212 3.178-2.905 1.368-.691 2.964-1.038 4.785-1.038zm-16.211 60.494h-16.24c-3.752.002-6.655.443-8.71 1.323-2.053.882-3.48 1.98-4.277 3.294-.798 1.315-1.196 2.6-1.196 3.854 0 2.12.854 3.76 2.56 4.92 1.708 1.16 3.976 1.976 6.803 2.447 2.827.471 5.947.707 9.36.707 6.796 0 11.796-.861 14.999-2.583 3.203-1.72 4.804-4.206 4.804-7.453 0-4.34-2.7-6.51-8.103-6.51zM571.036 34.83c-2.731 0-5.165.5-7.303 1.503-2.138 1.001-3.815 2.403-5.031 4.204-1.216 1.801-1.825 3.908-1.825 6.321 0 2.41.61 4.507 1.828 6.29 1.218 1.781 2.896 3.164 5.034 4.148 2.138.983 4.57 1.475 7.297 1.475 2.694 0 5.1-.492 7.22-1.475 2.12-.984 3.788-2.367 5.005-4.149 1.216-1.782 1.824-3.878 1.824-6.289 0-2.413-.608-4.52-1.824-6.321-1.217-1.801-2.885-3.203-5.005-4.204-2.12-1.002-4.526-1.503-7.22-1.503zm90.267 35.24c0 2.48.454 4.328 1.361 5.544.907 1.216 2.244 1.823 4.009 1.823 1.792 0 3.152-.624 4.08-1.874.928-1.25 1.39-3.081 1.39-5.493v-5.691h9.024v5.588c0 3.562-.512 6.592-1.537 9.092-1.019 2.5-2.617 4.398-4.783 5.694-2.165 1.295-4.956 1.944-8.378 1.944-3.532 0-6.422-.674-8.671-2.021-2.249-1.347-3.917-3.262-5.006-5.745-1.089-2.483-1.633-5.437-1.633-8.861l.006-33.746h-9.703v-8.735h9.703V12.957h10.144v14.632h18.92l-.1 8.735h-18.82l-.006 33.746zM708.801 0v46.128h.418c.594-4.41 1.841-8.087 3.75-11.032 1.902-2.945 4.324-5.163 7.271-6.655 2.94-1.492 6.286-2.238 10.043-2.238 5.976 0 10.468 1.807 13.463 5.42 2.995 3.614 4.499 8.706 4.499 15.276v29.99h10.366v8.735h-29.65V76.89h9.14V48.557c0-4.177-.952-7.456-2.84-9.84-1.895-2.382-4.782-3.574-8.667-3.574-3.38 0-6.415.898-9.106 2.692-2.69 1.795-4.809 4.38-6.36 7.756-1.551 3.375-2.327 7.418-2.327 12.129v19.17h9.24v8.734h-30.109V76.89h10.725V8.735h-10.725V0h20.869zm70.787 67.468c1.53 3.089 3.723 5.507 6.583 7.253 2.866 1.747 6.286 2.62 10.272 2.62 4.135 0 7.696-.968 10.67-2.904 2.982-1.936 5.154-4.583 6.53-7.94l9.624 3.64C821.17 75.26 817.77 79.3 813.07 82.26c-4.701 2.958-10.212 4.438-16.525 4.438-6.09 0-11.338-1.272-15.756-3.816-4.41-2.544-7.803-6.062-10.178-10.555-2.374-4.492-3.56-9.662-3.56-15.508 0-5.918 1.207-11.158 3.608-15.721 2.408-4.564 5.787-8.136 10.13-10.716 4.344-2.58 9.423-3.87 15.237-3.87 5.875 0 10.94 1.279 15.19 3.838 4.255 2.56 7.52 6.118 9.806 10.676 2.28 4.557 3.42 9.808 3.42 15.751 0 .869-.014 1.547-.047 2.038-.034.49-.088.894-.155 1.211h-46.77c.306 2.723 1.014 5.204 2.119 7.443zm16.437-31.807c-3.743 0-7.021.893-9.834 2.676-2.806 1.783-4.991 4.264-6.55 7.44-.976 1.983-1.648 4.163-2.015 6.538h36.538c-.319-2.452-.966-4.708-1.945-6.769-1.457-3.066-3.547-5.48-6.28-7.242-2.738-1.762-6.042-2.643-9.914-2.643zM44.418 209c-6.554 0-12.55-1.045-17.987-3.136-5.438-2.092-10.128-5.059-14.069-8.902-3.942-3.844-6.987-8.399-9.137-13.664C1.075 178.033 0 172.224 0 165.872c0-6.279 1.077-12.02 3.23-17.226 2.153-5.206 5.198-9.712 9.136-13.517 3.938-3.804 8.626-6.745 14.062-8.822 5.437-2.076 11.438-3.114 18.003-3.114 6.566 0 12.56 1.038 17.983 3.114 5.422 2.076 10.104 5.017 14.046 8.822 3.942 3.805 6.99 8.312 9.142 13.521 2.153 5.21 3.23 10.954 3.23 17.233 0 6.353-1.075 12.16-3.225 17.422-2.15 5.26-5.198 9.813-9.144 13.658-3.946 3.844-8.63 6.812-14.054 8.902-5.423 2.09-11.42 3.135-17.991 3.135zm-.006-21.043c4.246 0 7.989-.94 11.229-2.823 3.24-1.882 5.769-4.48 7.588-7.793 1.82-3.313 2.73-7.135 2.73-11.468 0-4.265-.91-8.025-2.728-11.28-1.819-3.254-4.347-5.794-7.585-7.62-3.238-1.825-6.98-2.737-11.226-2.737s-7.99.912-11.23 2.738c-3.24 1.825-5.77 4.365-7.588 7.62-1.819 3.254-2.728 7.014-2.728 11.28 0 4.332.91 8.154 2.729 11.467 1.82 3.314 4.347 5.91 7.584 7.793 3.238 1.882 6.98 2.823 11.225 2.823zm78.891-3.306c0 1.605.273 2.803.819 3.593.545.79 1.329 1.185 2.348 1.185 1.056 0 1.854-.401 2.394-1.204.54-.802.81-1.993.81-3.574v-5.603h18.21v5.495c0 4.876-.808 9.118-2.42 12.728-1.614 3.609-4.131 6.407-7.554 8.392-3.423 1.986-7.85 2.979-13.278 2.979-5.326 0-9.674-1.002-13.046-3.007-3.371-2.004-5.859-4.802-7.462-8.393-1.603-3.591-2.404-7.789-2.404-12.59v-20.699h-8.97v-17.607h8.97V129.8h21.583v16.546h24.314l-.108 17.607h-24.206v20.698zm58.42-62.718v43.583l.715.001c.598-4.585 1.766-8.41 3.501-11.472 1.737-3.063 4.043-5.359 6.922-6.887 2.878-1.528 6.346-2.292 10.405-2.292 6.217 0 10.863 1.741 13.937 5.224s4.612 8.335 4.612 14.556v25.375h7.077v17.537h-35.007V190.02h6.347v-18.68c0-2.76-.632-4.95-1.897-6.572-1.265-1.622-3.08-2.433-5.446-2.433-1.945 0-3.766.602-5.464 1.805-1.697 1.203-3.071 3.072-4.123 5.604-1.053 2.533-1.579 5.792-1.579 9.778v10.498h6.384v17.537h-35.509V190.02h7.543v-50.55h-7.543v-17.538h29.125zm75.231 61.897c1.017 1.957 2.459 3.492 4.324 4.607 1.865 1.114 4.099 1.67 6.702 1.67 2.527 0 4.727-.527 6.6-1.583 1.874-1.057 3.287-2.464 4.242-4.222l20.937 5.357c-2.314 5.968-6.268 10.67-11.862 14.106s-12.341 5.154-20.24 5.154c-7.047 0-13.14-1.339-18.278-4.018-5.14-2.68-9.103-6.405-11.892-11.177-2.788-4.772-4.182-10.329-4.182-16.67 0-6.351 1.38-11.938 4.143-16.76 2.762-4.822 6.669-8.582 11.722-11.278 5.053-2.696 11.013-4.044 17.88-4.044 6.896 0 12.852 1.345 17.87 4.034 5.016 2.689 8.886 6.442 11.61 11.259 2.723 4.817 4.085 10.415 4.085 16.795l-.001.994-.005 1.347c-.004.7-.018 1.36-.043 1.978H255.99c.242.864.564 1.68.964 2.451zm10.596-21.156c-2.433 0-4.562.58-6.386 1.743-1.824 1.163-3.236 2.819-4.236 4.969-.344.74-.628 1.527-.854 2.362h22.868c-.226-.941-.527-1.822-.903-2.642-.941-2.056-2.302-3.642-4.084-4.758-1.78-1.116-3.916-1.674-6.405-1.674zm85.553-17.266c.564 0 1.09.027 1.576.08a10.5 10.5 0 0 1 1.383.245v20.605a12.138 12.138 0 0 0-1.783-.328c-.644-.073-1.41-.11-2.297-.11-5.162 0-9.103 1.236-11.821 3.705-2.72 2.47-4.08 6.073-4.08 10.811v9.605h6.87v17.537h-36.145V190.02h7.692v-26.138h-7.692v-17.537h29.275v17.945h.714c.35-4.2 1.178-7.697 2.482-10.489 1.305-2.792 3.103-4.89 5.395-6.292 2.292-1.401 5.102-2.102 8.43-2.102zm85.284-19.356l28.866 71.836h7.233v9.67h-34.54v-9.67h16.232l-6.23-15.56h-35.55l-6.228 15.56H424.4v9.67h-34.023v-9.67h7.234l28.865-71.836h11.91zm-5.809 12.89h-.81l-13.662 34.125h28.134l-13.662-34.126zm-.475-1.186l-.525 1.185h.19l.405-1.01-.07-.175zm.154-.035l-.084.21.405 1.01h.232l-.553-1.22zm-1.433-3.162l1.28 3.197.083-.189-1.363-3.008zm2.7 0l-1.337 3.008.07.154 1.267-3.162zm126.912 13.578c5.952 0 10.428 1.806 13.427 5.42 2.999 3.612 4.498 8.706 4.498 15.282v29.984h10.37v8.735h-29.652v-8.735h9.138v-28.32c0-4.185-.944-7.469-2.833-9.852-1.888-2.383-4.8-3.574-8.738-3.574-3.133 0-5.948.846-8.445 2.54-2.497 1.695-4.468 4.127-5.916 7.296-1.446 3.17-2.17 6.967-2.17 11.39v20.52h10.374v8.735h-29.657v-8.735h9.139v-28.32c0-4.185-.944-7.469-2.832-9.852s-4.8-3.574-8.74-3.574c-3.133 0-5.948.846-8.444 2.54-2.497 1.695-4.469 4.127-5.916 7.296-1.447 3.17-2.17 6.967-2.17 11.39v20.52h9.24v8.735h-30.1v-8.735h10.715v-40.566H481.01v-8.735h20.86l-.001 17.183h.42c.836-6.193 3.05-10.836 6.644-13.93 3.595-3.092 8.013-4.638 13.257-4.638 5.957 0 10.434 1.806 13.43 5.42 2.665 3.211 4.145 7.594 4.44 13.148h.476c.835-6.193 3.05-10.836 6.644-13.93 3.594-3.092 8.013-4.638 13.257-4.638zm49.273 41.264c1.527 3.09 3.722 5.508 6.583 7.254 2.862 1.746 6.285 2.62 10.27 2.62 4.137 0 7.694-.969 10.672-2.905 2.978-1.936 5.153-4.583 6.525-7.94l9.628 3.64c-2.096 5.123-5.496 9.164-10.198 12.122-4.703 2.959-10.21 4.438-16.525 4.438-6.088 0-11.339-1.272-15.753-3.816-4.414-2.544-7.808-6.062-10.18-10.554-2.373-4.493-3.56-9.662-3.56-15.509 0-5.917 1.203-11.158 3.61-15.72 2.405-4.564 5.78-8.136 10.125-10.716 4.344-2.58 9.422-3.871 15.236-3.871 5.877 0 10.941 1.28 15.194 3.839s7.521 6.117 9.803 10.675c2.283 4.558 3.423 9.808 3.423 15.752 0 .868-.016 1.547-.05 2.037a8.9 8.9 0 0 1-.154 1.212h-46.767c.305 2.723 1.01 5.203 2.118 7.442zm16.433-31.806c-3.743 0-7.019.892-9.828 2.675-2.81 1.784-4.995 4.264-6.555 7.44-.975 1.984-1.645 4.163-2.011 6.538h36.538c-.32-2.452-.97-4.708-1.947-6.768-1.454-3.067-3.548-5.481-6.282-7.243-2.735-1.761-6.04-2.642-9.915-2.642zm77.951-8.94a17.939 17.939 0 0 1 3.46.325v11.539c-.742-.211-1.517-.37-2.327-.478a18.965 18.965 0 0 0-2.468-.16c-4.938 0-8.87 1.766-11.81 5.3-2.948 3.532-4.418 8.458-4.418 14.774v18.868h10.589v8.735h-31.861v-8.735h11.127v-40.566h-11.127v-8.735h21.272l-.001 17.48h.425c.473-4.042 1.464-7.422 2.968-10.14 1.504-2.72 3.46-4.766 5.861-6.143 2.395-1.376 5.167-2.064 8.31-2.064zm32.605 50.178h10.467v8.725h-31.673v-8.725h11.061v-40.59h-11.061v-8.726h21.206v49.316zm-11.71-75.436H737.4v12.952h-12.41v-12.952zm59.321 25.047c3.885 0 7.062.599 9.537 1.795 2.476 1.197 4.344 2.866 5.612 5.008 1.268 2.141 2.057 4.631 2.36 7.47l.418-.001.001-13.194h10.144v22.163h-10.144c-.432-2.763-1.376-5.207-2.82-7.33-1.436-2.124-3.325-3.782-5.652-4.973-2.326-1.192-5.031-1.787-8.127-1.787-3.81 0-7.143.892-10.003 2.675-2.86 1.784-5.072 4.264-6.65 7.44-1.578 3.178-2.367 6.857-2.367 11.041 0 4.01.795 7.56 2.394 10.65 1.598 3.09 3.865 5.508 6.812 7.254 2.948 1.746 6.462 2.62 10.55 2.62 4.073 0 7.567-.866 10.474-2.597 2.907-1.73 4.978-4.066 6.219-7.006l9.415 4.16c-1.902 4.6-5.153 8.216-9.76 10.849-4.606 2.632-10.09 3.95-16.45 3.95-6.118 0-11.433-1.273-15.931-3.817-4.5-2.544-7.973-6.062-10.414-10.554-2.442-4.493-3.663-9.662-3.663-15.509 0-4.438.668-8.506 1.997-12.205 1.328-3.698 3.237-6.9 5.72-9.605 2.481-2.706 5.436-4.799 8.869-6.278 3.44-1.48 7.257-2.22 11.46-2.22zm66.734-.096c5.18 0 9.483.733 12.923 2.198 3.446 1.466 6.016 3.673 7.73 6.62 1.712 2.948 2.562 6.663 2.562 11.145v30.512h8.155v8.735h-12.39c-1.903 0-3.36-.607-4.378-1.82-1.018-1.214-1.531-2.93-1.531-5.149v-10.695h-.418c-.81 6.064-2.927 10.65-6.347 13.76-3.426 3.109-8.08 4.662-13.962 4.662-6.057 0-10.677-1.38-13.847-4.141s-4.755-6.803-4.755-12.124c0-4.768 1.349-8.446 4.054-11.034 2.711-2.59 7.176-4.531 13.395-5.828l21.88-4.535v-1.722c0-2.473-.506-4.541-1.531-6.206-1.019-1.665-2.536-2.919-4.54-3.76-2.01-.842-4.478-1.263-7.405-1.263-4.209 0-7.514.856-9.922 2.567-2.414 1.712-3.959 4.283-4.64 7.713L826.343 166c.661-3.947 2.017-7.23 4.054-9.849 2.037-2.619 4.768-4.574 8.195-5.866 3.433-1.292 7.58-1.937 12.45-1.937zm13.48 29.462l-20.63 4.673c-2.914.674-5.072 1.724-6.462 3.15-1.396 1.426-2.09 3.358-2.09 5.796 0 2.685.83 4.714 2.482 6.088 1.645 1.372 4.053 2.059 7.217 2.059 3.837 0 7.223-.927 10.157-2.779 2.941-1.853 5.228-4.464 6.873-7.835 1.497-3.078 2.313-6.642 2.444-10.692l.01-.46zm46.164-29.36c3.5 0 6.408.555 8.721 1.665 2.314 1.11 4.087 2.653 5.328 4.63 1.235 1.977 2.024 4.259 2.361 6.846h.425v-12.069h10.144v18.15h-10.144c-.587-3.225-2.226-5.865-4.903-7.92-2.685-2.057-5.976-3.085-9.888-3.085-3.157 0-5.578.687-7.258 2.062-1.68 1.375-2.516 3.122-2.516 5.24 0 2.45 1.201 4.368 3.595 5.754 2.402 1.388 6.152 2.503 11.25 3.345 8.135 1.295 13.875 3.456 17.2 6.484 3.332 3.03 4.998 7.107 4.998 12.234 0 5.29-1.578 9.42-4.735 12.39-3.15 2.97-7.858 4.454-14.11 4.454-3.635 0-6.725-.547-9.267-1.64-2.536-1.094-4.533-2.607-5.983-4.54-1.457-1.933-2.374-4.168-2.752-6.706l-.425-.001v11.815h-10.144v-18.209h10.144c.627 3.243 2.36 5.896 5.207 7.962 2.853 2.064 6.435 3.097 10.751 3.097 3.63 0 6.401-.73 8.31-2.187 1.909-1.458 2.86-3.6 2.86-6.429 0-2.63-.985-4.645-2.968-6.048-1.983-1.403-5.564-2.507-10.738-3.313-8.512-1.362-14.528-3.543-18.049-6.543-3.52-3-5.281-6.871-5.281-11.611 0-4.718 1.545-8.534 4.64-11.452 3.096-2.917 7.507-4.375 13.227-4.375z"/></g></svg>