<svg xmlns="http://www.w3.org/2000/svg" xmlns:xlink="http://www.w3.org/1999/xlink" width="353" height="105"><defs><filter id="b" width="201%" height="185.5%" x="-40.4%" y="-34.2%" filterUnits="objectBoundingBox"><feOffset dx="2" dy="2" in="SourceAlpha" result="shadowOffsetOuter1"/><feGaussianBlur in="shadowOffsetOuter1" result="shadowBlurOuter1" stdDeviation="3"/><feColorMatrix in="shadowBlurOuter1" values="0 0 0 0 0 0 0 0 0 0 0 0 0 0 0 0 0 0 0.6 0"/></filter><filter id="d" width="184.6%" height="185.5%" x="-33.8%" y="-34.2%" filterUnits="objectBoundingBox"><feOffset dx="2" dy="2" in="SourceAlpha" result="shadowOffsetOuter1"/><feGaussianBlur in="shadowOffsetOuter1" result="shadowBlurOuter1" stdDeviation="3"/><feColorMatrix in="shadowBlurOuter1" values="0 0 0 0 0 0 0 0 0 0 0 0 0 0 0 0 0 0 0.6 0"/></filter><filter id="f" width="281.4%" height="188.9%" x="-72.6%" y="-35.6%" filterUnits="objectBoundingBox"><feOffset dx="2" dy="2" in="SourceAlpha" result="shadowOffsetOuter1"/><feGaussianBlur in="shadowOffsetOuter1" result="shadowBlurOuter1" stdDeviation="3"/><feColorMatrix in="shadowBlurOuter1" values="0 0 0 0 0 0 0 0 0 0 0 0 0 0 0 0 0 0 0.6 0"/></filter><filter id="h" width="281.4%" height="188.9%" x="-72.6%" y="-35.6%" filterUnits="objectBoundingBox"><feOffset dx="2" dy="2" in="SourceAlpha" result="shadowOffsetOuter1"/><feGaussianBlur in="shadowOffsetOuter1" result="shadowBlurOuter1" stdDeviation="3"/><feColorMatrix in="shadowBlurOuter1" values="0 0 0 0 0 0 0 0 0 0 0 0 0 0 0 0 0 0 0.6 0"/></filter><filter id="j" width="273.1%" height="188.9%" x="-69.3%" y="-35.6%" filterUnits="objectBoundingBox"><feOffset dx="2" dy="2" in="SourceAlpha" result="shadowOffsetOuter1"/><feGaussianBlur in="shadowOffsetOuter1" result="shadowBlurOuter1" stdDeviation="3"/><feColorMatrix in="shadowBlurOuter1" values="0 0 0 0 0 0 0 0 0 0 0 0 0 0 0 0 0 0 0.6 0"/></filter><filter id="l" width="201%" height="185.5%" x="-40.4%" y="-34.2%" filterUnits="objectBoundingBox"><feOffset dx="2" dy="2" in="SourceAlpha" result="shadowOffsetOuter1"/><feGaussianBlur in="shadowOffsetOuter1" result="shadowBlurOuter1" stdDeviation="3"/><feColorMatrix in="shadowBlurOuter1" values="0 0 0 0 0 0 0 0 0 0 0 0 0 0 0 0 0 0 0.6 0"/></filter><filter id="n" width="231.1%" height="188.9%" x="-52.5%" y="-35.6%" filterUnits="objectBoundingBox"><feOffset dx="2" dy="2" in="SourceAlpha" result="shadowOffsetOuter1"/><feGaussianBlur in="shadowOffsetOuter1" result="shadowBlurOuter1" stdDeviation="3"/><feColorMatrix in="shadowBlurOuter1" values="0 0 0 0 0 0 0 0 0 0 0 0 0 0 0 0 0 0 0.6 0"/></filter><filter id="p" width="633.3%" height="188.9%" x="-213.3%" y="-35.6%" filterUnits="objectBoundingBox"><feOffset dx="2" dy="2" in="SourceAlpha" result="shadowOffsetOuter1"/><feGaussianBlur in="shadowOffsetOuter1" result="shadowBlurOuter1" stdDeviation="3"/><feColorMatrix in="shadowBlurOuter1" values="0 0 0 0 0 0 0 0 0 0 0 0 0 0 0 0 0 0 0.6 0"/></filter><filter id="r" width="210.7%" height="183.3%" x="-44.3%" y="-33.3%" filterUnits="objectBoundingBox"><feOffset dx="2" dy="2" in="SourceAlpha" result="shadowOffsetOuter1"/><feGaussianBlur in="shadowOffsetOuter1" result="shadowBlurOuter1" stdDeviation="3"/><feColorMatrix in="shadowBlurOuter1" values="0 0 0 0 0 0 0 0 0 0 0 0 0 0 0 0 0 0 0.6 0"/></filter><filter id="t" width="200.3%" height="185.5%" x="-40.1%" y="-34.2%" filterUnits="objectBoundingBox"><feOffset dx="2" dy="2" in="SourceAlpha" result="shadowOffsetOuter1"/><feGaussianBlur in="shadowOffsetOuter1" result="shadowBlurOuter1" stdDeviation="3"/><feColorMatrix in="shadowBlurOuter1" values="0 0 0 0 0 0 0 0 0 0 0 0 0 0 0 0 0 0 0.6 0"/></filter><filter id="v" width="231.1%" height="188.9%" x="-52.5%" y="-35.6%" filterUnits="objectBoundingBox"><feOffset dx="2" dy="2" in="SourceAlpha" result="shadowOffsetOuter1"/><feGaussianBlur in="shadowOffsetOuter1" result="shadowBlurOuter1" stdDeviation="3"/><feColorMatrix in="shadowBlurOuter1" values="0 0 0 0 0 0 0 0 0 0 0 0 0 0 0 0 0 0 0.6 0"/></filter><filter id="x" width="238.4%" height="188.9%" x="-55.4%" y="-35.6%" filterUnits="objectBoundingBox"><feOffset dx="2" dy="2" in="SourceAlpha" result="shadowOffsetOuter1"/><feGaussianBlur in="shadowOffsetOuter1" result="shadowBlurOuter1" stdDeviation="3"/><feColorMatrix in="shadowBlurOuter1" values="0 0 0 0 0 0 0 0 0 0 0 0 0 0 0 0 0 0 0.6 0"/></filter><filter id="z" width="273.2%" height="188.9%" x="-69.3%" y="-35.6%" filterUnits="objectBoundingBox"><feOffset dx="2" dy="2" in="SourceAlpha" result="shadowOffsetOuter1"/><feGaussianBlur in="shadowOffsetOuter1" result="shadowBlurOuter1" stdDeviation="3"/><feColorMatrix in="shadowBlurOuter1" values="0 0 0 0 0 0 0 0 0 0 0 0 0 0 0 0 0 0 0.6 0"/></filter><filter id="B" width="269.3%" height="390.9%" x="-67.7%" y="-116.4%" filterUnits="objectBoundingBox"><feOffset dx="2" dy="2" in="SourceAlpha" result="shadowOffsetOuter1"/><feGaussianBlur in="shadowOffsetOuter1" result="shadowBlurOuter1" stdDeviation="3"/><feColorMatrix in="shadowBlurOuter1" values="0 0 0 0 0 0 0 0 0 0 0 0 0 0 0 0 0 0 0.6 0"/></filter><filter id="D" width="183.2%" height="185.1%" x="-33.3%" y="-34%" filterUnits="objectBoundingBox"><feOffset dx="2" dy="2" in="SourceAlpha" result="shadowOffsetOuter1"/><feGaussianBlur in="shadowOffsetOuter1" result="shadowBlurOuter1" stdDeviation="3"/><feColorMatrix in="shadowBlurOuter1" values="0 0 0 0 0 0 0 0 0 0 0 0 0 0 0 0 0 0 0.6 0"/></filter><filter id="F" width="223.3%" height="188.9%" x="-49.3%" y="-35.6%" filterUnits="objectBoundingBox"><feOffset dx="2" dy="2" in="SourceAlpha" result="shadowOffsetOuter1"/><feGaussianBlur in="shadowOffsetOuter1" result="shadowBlurOuter1" stdDeviation="3"/><feColorMatrix in="shadowBlurOuter1" values="0 0 0 0 0 0 0 0 0 0 0 0 0 0 0 0 0 0 0.6 0"/></filter><filter id="H" width="208.5%" height="188.9%" x="-43.4%" y="-35.6%" filterUnits="objectBoundingBox"><feOffset dx="2" dy="2" in="SourceAlpha" result="shadowOffsetOuter1"/><feGaussianBlur in="shadowOffsetOuter1" result="shadowBlurOuter1" stdDeviation="3"/><feColorMatrix in="shadowBlurOuter1" values="0 0 0 0 0 0 0 0 0 0 0 0 0 0 0 0 0 0 0.6 0"/></filter><filter id="J" width="248.7%" height="188.9%" x="-59.5%" y="-35.6%" filterUnits="objectBoundingBox"><feOffset dx="2" dy="2" in="SourceAlpha" result="shadowOffsetOuter1"/><feGaussianBlur in="shadowOffsetOuter1" result="shadowBlurOuter1" stdDeviation="3"/><feColorMatrix in="shadowBlurOuter1" values="0 0 0 0 0 0 0 0 0 0 0 0 0 0 0 0 0 0 0.6 0"/></filter><filter id="L" width="203.4%" height="188.9%" x="-41.3%" y="-35.6%" filterUnits="objectBoundingBox"><feOffset dx="2" dy="2" in="SourceAlpha" result="shadowOffsetOuter1"/><feGaussianBlur in="shadowOffsetOuter1" result="shadowBlurOuter1" stdDeviation="3"/><feColorMatrix in="shadowBlurOuter1" values="0 0 0 0 0 0 0 0 0 0 0 0 0 0 0 0 0 0 0.6 0"/></filter><filter id="N" width="202.6%" height="185.9%" x="-41%" y="-34.4%" filterUnits="objectBoundingBox"><feOffset dx="2" dy="2" in="SourceAlpha" result="shadowOffsetOuter1"/><feGaussianBlur in="shadowOffsetOuter1" result="shadowBlurOuter1" stdDeviation="3"/><feColorMatrix in="shadowBlurOuter1" values="0 0 0 0 0 0 0 0 0 0 0 0 0 0 0 0 0 0 0.6 0"/></filter><filter id="P" width="195.5%" height="186%" x="-38.2%" y="-34.4%" filterUnits="objectBoundingBox"><feOffset dx="2" dy="2" in="SourceAlpha" result="shadowOffsetOuter1"/><feGaussianBlur in="shadowOffsetOuter1" result="shadowBlurOuter1" stdDeviation="3"/><feColorMatrix in="shadowBlurOuter1" values="0 0 0 0 0 0 0 0 0 0 0 0 0 0 0 0 0 0 0.6 0"/></filter><filter id="R" width="273.1%" height="188.9%" x="-69.3%" y="-35.6%" filterUnits="objectBoundingBox"><feOffset dx="2" dy="2" in="SourceAlpha" result="shadowOffsetOuter1"/><feGaussianBlur in="shadowOffsetOuter1" result="shadowBlurOuter1" stdDeviation="3"/><feColorMatrix in="shadowBlurOuter1" values="0 0 0 0 0 0 0 0 0 0 0 0 0 0 0 0 0 0 0.6 0"/></filter><filter id="T" width="218.3%" height="188.9%" x="-47.3%" y="-35.6%" filterUnits="objectBoundingBox"><feOffset dx="2" dy="2" in="SourceAlpha" result="shadowOffsetOuter1"/><feGaussianBlur in="shadowOffsetOuter1" result="shadowBlurOuter1" stdDeviation="3"/><feColorMatrix in="shadowBlurOuter1" values="0 0 0 0 0 0 0 0 0 0 0 0 0 0 0 0 0 0 0.6 0"/></filter><filter id="V" width="633.3%" height="188.9%" x="-213.3%" y="-35.6%" filterUnits="objectBoundingBox"><feOffset dx="2" dy="2" in="SourceAlpha" result="shadowOffsetOuter1"/><feGaussianBlur in="shadowOffsetOuter1" result="shadowBlurOuter1" stdDeviation="3"/><feColorMatrix in="shadowBlurOuter1" values="0 0 0 0 0 0 0 0 0 0 0 0 0 0 0 0 0 0 0.6 0"/></filter><filter id="X" width="201%" height="185.5%" x="-40.4%" y="-34.2%" filterUnits="objectBoundingBox"><feOffset dx="2" dy="2" in="SourceAlpha" result="shadowOffsetOuter1"/><feGaussianBlur in="shadowOffsetOuter1" result="shadowBlurOuter1" stdDeviation="3"/><feColorMatrix in="shadowBlurOuter1" values="0 0 0 0 0 0 0 0 0 0 0 0 0 0 0 0 0 0 0.6 0"/></filter><filter id="Z" width="202.6%" height="185.9%" x="-41%" y="-34.4%" filterUnits="objectBoundingBox"><feOffset dx="2" dy="2" in="SourceAlpha" result="shadowOffsetOuter1"/><feGaussianBlur in="shadowOffsetOuter1" result="shadowBlurOuter1" stdDeviation="3"/><feColorMatrix in="shadowBlurOuter1" values="0 0 0 0 0 0 0 0 0 0 0 0 0 0 0 0 0 0 0.6 0"/></filter><filter id="ab" width="246.5%" height="185.8%" x="-58.6%" y="-34.3%" filterUnits="objectBoundingBox"><feOffset dx="2" dy="2" in="SourceAlpha" result="shadowOffsetOuter1"/><feGaussianBlur in="shadowOffsetOuter1" result="shadowBlurOuter1" stdDeviation="3"/><feColorMatrix in="shadowBlurOuter1" values="0 0 0 0 0 0 0 0 0 0 0 0 0 0 0 0 0 0 0.6 0"/></filter><filter id="ad" width="269.3%" height="391%" x="-67.7%" y="-116.4%" filterUnits="objectBoundingBox"><feOffset dx="2" dy="2" in="SourceAlpha" result="shadowOffsetOuter1"/><feGaussianBlur in="shadowOffsetOuter1" result="shadowBlurOuter1" stdDeviation="3"/><feColorMatrix in="shadowBlurOuter1" values="0 0 0 0 0 0 0 0 0 0 0 0 0 0 0 0 0 0 0.6 0"/></filter><filter id="af" width="358.7%" height="252.6%" x="-103.5%" y="-61.1%" filterUnits="objectBoundingBox"><feOffset dx="2" dy="2" in="SourceAlpha" result="shadowOffsetOuter1"/><feGaussianBlur in="shadowOffsetOuter1" result="shadowBlurOuter1" stdDeviation="3"/><feColorMatrix in="shadowBlurOuter1" values="0 0 0 0 0 0 0 0 0 0 0 0 0 0 0 0 0 0 0.6 0"/></filter><filter id="ah" width="448.1%" height="301.6%" x="-139.2%" y="-80.6%" filterUnits="objectBoundingBox"><feOffset dx="2" dy="2" in="SourceAlpha" result="shadowOffsetOuter1"/><feGaussianBlur in="shadowOffsetOuter1" result="shadowBlurOuter1" stdDeviation="3"/><feColorMatrix in="shadowBlurOuter1" values="0 0 0 0 0 0 0 0 0 0 0 0 0 0 0 0 0 0 0.6 0"/></filter><filter id="aj" width="457.3%" height="299.1%" x="-142.9%" y="-79.7%" filterUnits="objectBoundingBox"><feOffset dx="2" dy="2" in="SourceAlpha" result="shadowOffsetOuter1"/><feGaussianBlur in="shadowOffsetOuter1" result="shadowBlurOuter1" stdDeviation="3"/><feColorMatrix in="shadowBlurOuter1" values="0 0 0 0 0 0 0 0 0 0 0 0 0 0 0 0 0 0 0.6 0"/></filter><filter id="al" width="992.5%" height="245.7%" x="-357%" y="-58.3%" filterUnits="objectBoundingBox"><feOffset dx="2" dy="2" in="SourceAlpha" result="shadowOffsetOuter1"/><feGaussianBlur in="shadowOffsetOuter1" result="shadowBlurOuter1" stdDeviation="3"/><feColorMatrix in="shadowBlurOuter1" values="0 0 0 0 0 0 0 0 0 0 0 0 0 0 0 0 0 0 0.6 0"/></filter><filter id="an" width="450.8%" height="299.1%" x="-140.3%" y="-79.7%" filterUnits="objectBoundingBox"><feOffset dx="2" dy="2" in="SourceAlpha" result="shadowOffsetOuter1"/><feGaussianBlur in="shadowOffsetOuter1" result="shadowBlurOuter1" stdDeviation="3"/><feColorMatrix in="shadowBlurOuter1" values="0 0 0 0 0 0 0 0 0 0 0 0 0 0 0 0 0 0 0.6 0"/></filter><filter id="ap" width="448.1%" height="301.6%" x="-139.2%" y="-80.6%" filterUnits="objectBoundingBox"><feOffset dx="2" dy="2" in="SourceAlpha" result="shadowOffsetOuter1"/><feGaussianBlur in="shadowOffsetOuter1" result="shadowBlurOuter1" stdDeviation="3"/><feColorMatrix in="shadowBlurOuter1" values="0 0 0 0 0 0 0 0 0 0 0 0 0 0 0 0 0 0 0.6 0"/></filter><filter id="ar" width="513.1%" height="259.7%" x="-165.3%" y="-63.9%" filterUnits="objectBoundingBox"><feOffset dx="2" dy="2" in="SourceAlpha" result="shadowOffsetOuter1"/><feGaussianBlur in="shadowOffsetOuter1" result="shadowBlurOuter1" stdDeviation="3"/><feColorMatrix in="shadowBlurOuter1" values="0 0 0 0 0 0 0 0 0 0 0 0 0 0 0 0 0 0 0.6 0"/></filter><filter id="at" width="358.7%" height="252.6%" x="-103.5%" y="-61.1%" filterUnits="objectBoundingBox"><feOffset dx="2" dy="2" in="SourceAlpha" result="shadowOffsetOuter1"/><feGaussianBlur in="shadowOffsetOuter1" result="shadowBlurOuter1" stdDeviation="3"/><feColorMatrix in="shadowBlurOuter1" values="0 0 0 0 0 0 0 0 0 0 0 0 0 0 0 0 0 0 0.6 0"/></filter><filter id="av" width="316.3%" height="301.6%" x="-86.5%" y="-80.6%" filterUnits="objectBoundingBox"><feOffset dx="2" dy="2" in="SourceAlpha" result="shadowOffsetOuter1"/><feGaussianBlur in="shadowOffsetOuter1" result="shadowBlurOuter1" stdDeviation="3"/><feColorMatrix in="shadowBlurOuter1" values="0 0 0 0 0 0 0 0 0 0 0 0 0 0 0 0 0 0 0.6 0"/></filter><filter id="ax" width="450.8%" height="299.1%" x="-140.3%" y="-79.7%" filterUnits="objectBoundingBox"><feOffset dx="2" dy="2" in="SourceAlpha" result="shadowOffsetOuter1"/><feGaussianBlur in="shadowOffsetOuter1" result="shadowBlurOuter1" stdDeviation="3"/><feColorMatrix in="shadowBlurOuter1" values="0 0 0 0 0 0 0 0 0 0 0 0 0 0 0 0 0 0 0.6 0"/></filter><filter id="az" width="582.6%" height="301.6%" x="-193%" y="-80.6%" filterUnits="objectBoundingBox"><feOffset dx="2" dy="2" in="SourceAlpha" result="shadowOffsetOuter1"/><feGaussianBlur in="shadowOffsetOuter1" result="shadowBlurOuter1" stdDeviation="3"/><feColorMatrix in="shadowBlurOuter1" values="0 0 0 0 0 0 0 0 0 0 0 0 0 0 0 0 0 0 0.6 0"/></filter><filter id="aB" width="992.1%" height="245.7%" x="-356.8%" y="-58.3%" filterUnits="objectBoundingBox"><feOffset dx="2" dy="2" in="SourceAlpha" result="shadowOffsetOuter1"/><feGaussianBlur in="shadowOffsetOuter1" result="shadowBlurOuter1" stdDeviation="3"/><feColorMatrix in="shadowBlurOuter1" values="0 0 0 0 0 0 0 0 0 0 0 0 0 0 0 0 0 0 0.6 0"/></filter><filter id="aD" width="457.3%" height="299.1%" x="-142.9%" y="-79.7%" filterUnits="objectBoundingBox"><feOffset dx="2" dy="2" in="SourceAlpha" result="shadowOffsetOuter1"/><feGaussianBlur in="shadowOffsetOuter1" result="shadowBlurOuter1" stdDeviation="3"/><feColorMatrix in="shadowBlurOuter1" values="0 0 0 0 0 0 0 0 0 0 0 0 0 0 0 0 0 0 0.6 0"/></filter><filter id="aF" width="465.9%" height="299.1%" x="-146.4%" y="-79.7%" filterUnits="objectBoundingBox"><feOffset dx="2" dy="2" in="SourceAlpha" result="shadowOffsetOuter1"/><feGaussianBlur in="shadowOffsetOuter1" result="shadowBlurOuter1" stdDeviation="3"/><feColorMatrix in="shadowBlurOuter1" values="0 0 0 0 0 0 0 0 0 0 0 0 0 0 0 0 0 0 0.6 0"/></filter><filter id="aH" width="486%" height="299.1%" x="-154.4%" y="-79.7%" filterUnits="objectBoundingBox"><feOffset dx="2" dy="2" in="SourceAlpha" result="shadowOffsetOuter1"/><feGaussianBlur in="shadowOffsetOuter1" result="shadowBlurOuter1" stdDeviation="3"/><feColorMatrix in="shadowBlurOuter1" values="0 0 0 0 0 0 0 0 0 0 0 0 0 0 0 0 0 0 0.6 0"/></filter><filter id="aJ" width="390.4%" height="249.9%" x="-116.2%" y="-60%" filterUnits="objectBoundingBox"><feOffset dx="2" dy="2" in="SourceAlpha" result="shadowOffsetOuter1"/><feGaussianBlur in="shadowOffsetOuter1" result="shadowBlurOuter1" stdDeviation="3"/><feColorMatrix in="shadowBlurOuter1" values="0 0 0 0 0 0 0 0 0 0 0 0 0 0 0 0 0 0 0.6 0"/></filter><filter id="aL" width="444.7%" height="299.1%" x="-137.9%" y="-79.7%" filterUnits="objectBoundingBox"><feOffset dx="2" dy="2" in="SourceAlpha" result="shadowOffsetOuter1"/><feGaussianBlur in="shadowOffsetOuter1" result="shadowBlurOuter1" stdDeviation="3"/><feColorMatrix in="shadowBlurOuter1" values="0 0 0 0 0 0 0 0 0 0 0 0 0 0 0 0 0 0 0.6 0"/></filter><filter id="aN" width="1198.9%" height="246.4%" x="-439.6%" y="-58.6%" filterUnits="objectBoundingBox"><feOffset dx="2" dy="2" in="SourceAlpha" result="shadowOffsetOuter1"/><feGaussianBlur in="shadowOffsetOuter1" result="shadowBlurOuter1" stdDeviation="3"/><feColorMatrix in="shadowBlurOuter1" values="0 0 0 0 0 0 0 0 0 0 0 0 0 0 0 0 0 0 0.6 0"/></filter><filter id="aP" width="1198.9%" height="246.4%" x="-439.6%" y="-58.6%" filterUnits="objectBoundingBox"><feOffset dx="2" dy="2" in="SourceAlpha" result="shadowOffsetOuter1"/><feGaussianBlur in="shadowOffsetOuter1" result="shadowBlurOuter1" stdDeviation="3"/><feColorMatrix in="shadowBlurOuter1" values="0 0 0 0 0 0 0 0 0 0 0 0 0 0 0 0 0 0 0.6 0"/></filter><filter id="aR" width="450.8%" height="299.1%" x="-140.3%" y="-79.7%" filterUnits="objectBoundingBox"><feOffset dx="2" dy="2" in="SourceAlpha" result="shadowOffsetOuter1"/><feGaussianBlur in="shadowOffsetOuter1" result="shadowBlurOuter1" stdDeviation="3"/><feColorMatrix in="shadowBlurOuter1" values="0 0 0 0 0 0 0 0 0 0 0 0 0 0 0 0 0 0 0.6 0"/></filter><filter id="aT" width="457.3%" height="299.1%" x="-142.9%" y="-79.7%" filterUnits="objectBoundingBox"><feOffset dx="2" dy="2" in="SourceAlpha" result="shadowOffsetOuter1"/><feGaussianBlur in="shadowOffsetOuter1" result="shadowBlurOuter1" stdDeviation="3"/><feColorMatrix in="shadowBlurOuter1" values="0 0 0 0 0 0 0 0 0 0 0 0 0 0 0 0 0 0 0.6 0"/></filter><filter id="aV" width="513.1%" height="259.7%" x="-165.3%" y="-63.9%" filterUnits="objectBoundingBox"><feOffset dx="2" dy="2" in="SourceAlpha" result="shadowOffsetOuter1"/><feGaussianBlur in="shadowOffsetOuter1" result="shadowBlurOuter1" stdDeviation="3"/><feColorMatrix in="shadowBlurOuter1" values="0 0 0 0 0 0 0 0 0 0 0 0 0 0 0 0 0 0 0.6 0"/></filter><filter id="aX" width="992.1%" height="245.7%" x="-356.8%" y="-58.3%" filterUnits="objectBoundingBox"><feOffset dx="2" dy="2" in="SourceAlpha" result="shadowOffsetOuter1"/><feGaussianBlur in="shadowOffsetOuter1" result="shadowBlurOuter1" stdDeviation="3"/><feColorMatrix in="shadowBlurOuter1" values="0 0 0 0 0 0 0 0 0 0 0 0 0 0 0 0 0 0 0.6 0"/></filter><filter id="aZ" width="444.7%" height="299.1%" x="-137.9%" y="-79.7%" filterUnits="objectBoundingBox"><feOffset dx="2" dy="2" in="SourceAlpha" result="shadowOffsetOuter1"/><feGaussianBlur in="shadowOffsetOuter1" result="shadowBlurOuter1" stdDeviation="3"/><feColorMatrix in="shadowBlurOuter1" values="0 0 0 0 0 0 0 0 0 0 0 0 0 0 0 0 0 0 0.6 0"/></filter><filter id="bb" width="448.1%" height="301.6%" x="-139.2%" y="-80.6%" filterUnits="objectBoundingBox"><feOffset dx="2" dy="2" in="SourceAlpha" result="shadowOffsetOuter1"/><feGaussianBlur in="shadowOffsetOuter1" result="shadowBlurOuter1" stdDeviation="3"/><feColorMatrix in="shadowBlurOuter1" values="0 0 0 0 0 0 0 0 0 0 0 0 0 0 0 0 0 0 0.6 0"/></filter><filter id="bd" width="486%" height="299.1%" x="-154.4%" y="-79.7%" filterUnits="objectBoundingBox"><feOffset dx="2" dy="2" in="SourceAlpha" result="shadowOffsetOuter1"/><feGaussianBlur in="shadowOffsetOuter1" result="shadowBlurOuter1" stdDeviation="3"/><feColorMatrix in="shadowBlurOuter1" values="0 0 0 0 0 0 0 0 0 0 0 0 0 0 0 0 0 0 0.6 0"/></filter><filter id="bf" width="992.5%" height="245.7%" x="-357%" y="-58.3%" filterUnits="objectBoundingBox"><feOffset dx="2" dy="2" in="SourceAlpha" result="shadowOffsetOuter1"/><feGaussianBlur in="shadowOffsetOuter1" result="shadowBlurOuter1" stdDeviation="3"/><feColorMatrix in="shadowBlurOuter1" values="0 0 0 0 0 0 0 0 0 0 0 0 0 0 0 0 0 0 0.6 0"/></filter><filter id="bh" width="448.1%" height="301.6%" x="-139.2%" y="-80.6%" filterUnits="objectBoundingBox"><feOffset dx="2" dy="2" in="SourceAlpha" result="shadowOffsetOuter1"/><feGaussianBlur in="shadowOffsetOuter1" result="shadowBlurOuter1" stdDeviation="3"/><feColorMatrix in="shadowBlurOuter1" values="0 0 0 0 0 0 0 0 0 0 0 0 0 0 0 0 0 0 0.6 0"/></filter><filter id="bj" width="358.7%" height="252.6%" x="-103.5%" y="-61.1%" filterUnits="objectBoundingBox"><feOffset dx="2" dy="2" in="SourceAlpha" result="shadowOffsetOuter1"/><feGaussianBlur in="shadowOffsetOuter1" result="shadowBlurOuter1" stdDeviation="3"/><feColorMatrix in="shadowBlurOuter1" values="0 0 0 0 0 0 0 0 0 0 0 0 0 0 0 0 0 0 0.6 0"/></filter><filter id="bl" width="582.6%" height="301.6%" x="-193%" y="-80.6%" filterUnits="objectBoundingBox"><feOffset dx="2" dy="2" in="SourceAlpha" result="shadowOffsetOuter1"/><feGaussianBlur in="shadowOffsetOuter1" result="shadowBlurOuter1" stdDeviation="3"/><feColorMatrix in="shadowBlurOuter1" values="0 0 0 0 0 0 0 0 0 0 0 0 0 0 0 0 0 0 0.6 0"/></filter><filter id="bn" width="513.1%" height="259.7%" x="-165.3%" y="-63.9%" filterUnits="objectBoundingBox"><feOffset dx="2" dy="2" in="SourceAlpha" result="shadowOffsetOuter1"/><feGaussianBlur in="shadowOffsetOuter1" result="shadowBlurOuter1" stdDeviation="3"/><feColorMatrix in="shadowBlurOuter1" values="0 0 0 0 0 0 0 0 0 0 0 0 0 0 0 0 0 0 0.6 0"/></filter><filter id="bp" width="326.7%" height="252.6%" x="-90.7%" y="-61.1%" filterUnits="objectBoundingBox"><feOffset dx="2" dy="2" in="SourceAlpha" result="shadowOffsetOuter1"/><feGaussianBlur in="shadowOffsetOuter1" result="shadowBlurOuter1" stdDeviation="3"/><feColorMatrix in="shadowBlurOuter1" values="0 0 0 0 0 0 0 0 0 0 0 0 0 0 0 0 0 0 0.6 0"/></filter><filter id="br" width="455.6%" height="301.6%" x="-142.2%" y="-80.6%" filterUnits="objectBoundingBox"><feOffset dx="2" dy="2" in="SourceAlpha" result="shadowOffsetOuter1"/><feGaussianBlur in="shadowOffsetOuter1" result="shadowBlurOuter1" stdDeviation="3"/><feColorMatrix in="shadowBlurOuter1" values="0 0 0 0 0 0 0 0 0 0 0 0 0 0 0 0 0 0 0.6 0"/></filter><filter id="bt" width="486%" height="299.1%" x="-154.4%" y="-79.7%" filterUnits="objectBoundingBox"><feOffset dx="2" dy="2" in="SourceAlpha" result="shadowOffsetOuter1"/><feGaussianBlur in="shadowOffsetOuter1" result="shadowBlurOuter1" stdDeviation="3"/><feColorMatrix in="shadowBlurOuter1" values="0 0 0 0 0 0 0 0 0 0 0 0 0 0 0 0 0 0 0.6 0"/></filter><filter id="bv" width="450.8%" height="299.1%" x="-140.3%" y="-79.7%" filterUnits="objectBoundingBox"><feOffset dx="2" dy="2" in="SourceAlpha" result="shadowOffsetOuter1"/><feGaussianBlur in="shadowOffsetOuter1" result="shadowBlurOuter1" stdDeviation="3"/><feColorMatrix in="shadowBlurOuter1" values="0 0 0 0 0 0 0 0 0 0 0 0 0 0 0 0 0 0 0.6 0"/></filter><filter id="bx" width="455.6%" height="301.6%" x="-142.2%" y="-80.6%" filterUnits="objectBoundingBox"><feOffset dx="2" dy="2" in="SourceAlpha" result="shadowOffsetOuter1"/><feGaussianBlur in="shadowOffsetOuter1" result="shadowBlurOuter1" stdDeviation="3"/><feColorMatrix in="shadowBlurOuter1" values="0 0 0 0 0 0 0 0 0 0 0 0 0 0 0 0 0 0 0.6 0"/></filter><filter id="bz" width="316.3%" height="301.6%" x="-86.5%" y="-80.6%" filterUnits="objectBoundingBox"><feOffset dx="2" dy="2" in="SourceAlpha" result="shadowOffsetOuter1"/><feGaussianBlur in="shadowOffsetOuter1" result="shadowBlurOuter1" stdDeviation="3"/><feColorMatrix in="shadowBlurOuter1" values="0 0 0 0 0 0 0 0 0 0 0 0 0 0 0 0 0 0 0.6 0"/></filter><filter id="bB" width="486%" height="299.1%" x="-154.4%" y="-79.7%" filterUnits="objectBoundingBox"><feOffset dx="2" dy="2" in="SourceAlpha" result="shadowOffsetOuter1"/><feGaussianBlur in="shadowOffsetOuter1" result="shadowBlurOuter1" stdDeviation="3"/><feColorMatrix in="shadowBlurOuter1" values="0 0 0 0 0 0 0 0 0 0 0 0 0 0 0 0 0 0 0.6 0"/></filter><path id="a" d="M40.54 33.7c-1.634 0-3.162-.305-4.587-.913a12.018 12.018 0 0 1-3.763-2.513 11.725 11.725 0 0 1-2.549-3.724c-.618-1.416-.926-2.934-.926-4.55 0-1.616.308-3.134.926-4.55a11.756 11.756 0 0 1 2.549-3.726 12.067 12.067 0 0 1 3.763-2.512c1.425-.608 2.953-.912 4.587-.912 1.55 0 3.004.271 4.362.812a11.925 11.925 0 0 1 3.614 2.237L47.465 17.7c-.699-1.134-1.642-2.062-2.824-2.788-1.184-.725-2.526-1.087-4.026-1.087-1.134 0-2.183.212-3.15.637a8.044 8.044 0 0 0-2.537 1.75 8.085 8.085 0 0 0-1.7 2.6A8.278 8.278 0 0 0 32.615 22a8.27 8.27 0 0 0 .613 3.187 8.012 8.012 0 0 0 4.237 4.35c.967.425 2.016.638 3.15.638 1.5 0 2.842-.363 4.026-1.088 1.182-.725 2.125-1.654 2.824-2.787l1.051 4.35a12.807 12.807 0 0 1-3.625 2.225c-1.351.55-2.801.825-4.351.825"/><path id="c" d="M63.853 30.175c1.134 0 2.184-.213 3.15-.638a8.011 8.011 0 0 0 2.537-1.75 8.089 8.089 0 0 0 1.701-2.6A8.296 8.296 0 0 0 71.853 22a8.287 8.287 0 0 0-.611-3.187 8.097 8.097 0 0 0-1.702-2.601 8.06 8.06 0 0 0-2.538-1.75c-.965-.425-2.015-.637-3.148-.637-1.135 0-2.184.212-3.15.637a8.044 8.044 0 0 0-2.538 1.75 8.08 8.08 0 0 0-1.7 2.6A8.287 8.287 0 0 0 55.852 22c0 1.134.204 2.196.612 3.188a8.072 8.072 0 0 0 1.701 2.599 7.996 7.996 0 0 0 2.538 1.75c.965.425 2.015.638 3.15.638m0 3.525c-1.635 0-3.163-.304-4.588-.913a12.055 12.055 0 0 1-3.764-2.512 11.756 11.756 0 0 1-2.549-3.725c-.617-1.416-.925-2.934-.925-4.55 0-1.616.309-3.134.925-4.55a11.756 11.756 0 0 1 2.55-3.725 12.075 12.075 0 0 1 3.763-2.513c1.425-.607 2.953-.912 4.587-.912 1.65 0 3.188.305 4.613.912a12.075 12.075 0 0 1 3.763 2.513 11.594 11.594 0 0 1 2.537 3.725c.608 1.416.912 2.934.912 4.55 0 1.616-.303 3.134-.912 4.55a11.594 11.594 0 0 1-2.538 3.725 12.055 12.055 0 0 1-3.762 2.512c-1.424.609-2.963.913-4.612.913"/><path id="k" d="M148.875 33.7c-1.634 0-3.163-.305-4.588-.913a12.04 12.04 0 0 1-3.763-2.513 11.74 11.74 0 0 1-2.549-3.724c-.617-1.416-.925-2.934-.925-4.55 0-1.616.308-3.134.925-4.55a11.772 11.772 0 0 1 2.549-3.726 12.09 12.09 0 0 1 3.763-2.512c1.425-.608 2.954-.912 4.588-.912 1.55 0 3.004.271 4.362.812a11.908 11.908 0 0 1 3.613 2.237L155.8 17.7c-.7-1.134-1.642-2.062-2.825-2.788-1.184-.725-2.525-1.087-4.025-1.087-1.134 0-2.183.212-3.15.637a8.044 8.044 0 0 0-2.537 1.75 8.068 8.068 0 0 0-1.7 2.6A8.26 8.26 0 0 0 140.95 22a8.25 8.25 0 0 0 .613 3.187 8.012 8.012 0 0 0 4.237 4.35c.967.425 2.016.638 3.15.638 1.5 0 2.841-.363 4.025-1.088 1.183-.725 2.125-1.654 2.825-2.787l1.05 4.35a12.779 12.779 0 0 1-3.625 2.225c-1.35.55-2.8.825-4.35.825"/><path id="s" d="M235.01 33.7c-1.667 0-3.221-.297-4.662-.888a11.77 11.77 0 0 1-3.8-2.487 11.542 11.542 0 0 1-2.551-3.713c-.608-1.408-.912-2.937-.912-4.588 0-1.649.309-3.182.925-4.599a11.664 11.664 0 0 1 2.562-3.725 12.006 12.006 0 0 1 3.789-2.5c1.432-.6 2.982-.9 4.649-.9 1.566 0 3.033.271 4.4.812a11.858 11.858 0 0 1 3.625 2.237l-1.049 4.3c-.701-1.133-1.651-2.062-2.851-2.787-1.2-.724-2.575-1.088-4.125-1.088-1.149 0-2.217.21-3.2.625a7.82 7.82 0 0 0-2.574 1.75 8.055 8.055 0 0 0-1.713 2.625c-.409 1-.613 2.084-.613 3.25 0 1.551.354 2.95 1.063 4.2a7.944 7.944 0 0 0 2.888 2.963c1.215.725 2.59 1.087 4.125 1.087.816 0 1.578-.087 2.287-.262a6.987 6.987 0 0 0 1.937-.788V24.1h-5.4V20.95h8.825v10.4a11.43 11.43 0 0 1-3.513 1.75 13.947 13.947 0 0 1-4.112.6"/><path id="A" d="M23.25 51.825c0-1.319.16-2.553.479-3.698.32-1.146.799-2.205 1.438-3.177h3.645c-.596.847-1.089 1.837-1.478 2.97-.39 1.131-.584 2.432-.584 3.905h-3.5zm-6.25 0c0-1.319.16-2.553.479-3.698.32-1.146.799-2.205 1.438-3.177h3.646c-.597.847-1.09 1.837-1.479 2.97-.39 1.131-.584 2.432-.584 3.905H17z"/><path id="C" d="M41.59 61.575c.75 0 1.44-.138 2.075-.413a5.344 5.344 0 0 0 1.675-1.137 5.027 5.027 0 0 0 1.112-1.676 5.354 5.354 0 0 0 .388-2.049c0-.716-.13-1.388-.388-2.013a5.061 5.061 0 0 0-1.112-1.662 5.363 5.363 0 0 0-1.675-1.138 5.173 5.173 0 0 0-2.075-.412c-.733 0-1.417.138-2.05.412a5.352 5.352 0 0 0-1.675 1.138 5.064 5.064 0 0 0-1.113 1.662 5.227 5.227 0 0 0-.387 2.013c0 .733.129 1.417.387 2.05a5.03 5.03 0 0 0 1.113 1.675 5.332 5.332 0 0 0 1.675 1.137 5.091 5.091 0 0 0 2.05.413m0 6.5c-1.667 0-3.23-.305-4.687-.913a11.941 11.941 0 0 1-3.826-2.524 11.83 11.83 0 0 1-2.562-3.738c-.616-1.417-.925-2.94-.925-4.575 0-1.634.309-3.158.925-4.575a11.83 11.83 0 0 1 2.562-3.738 11.96 11.96 0 0 1 3.826-2.525c1.458-.608 3.02-.912 4.687-.912 1.666 0 3.229.304 4.687.912a12.102 12.102 0 0 1 3.838 2.525 11.738 11.738 0 0 1 2.575 3.738c.617 1.417.925 2.941.925 4.575 0 1.634-.308 3.158-.925 4.575a11.738 11.738 0 0 1-2.575 3.738 12.083 12.083 0 0 1-3.838 2.524c-1.458.608-3.021.913-4.687.913"/><path id="K" d="M130.637 55.05h1.625c.566 0 1.042-.104 1.425-.312.384-.21.679-.496.888-.863.208-.366.312-.783.312-1.25 0-.733-.246-1.32-.737-1.762-.492-.442-1.121-.663-1.888-.663h-1.625v4.85zm-6.475 12.525v-22.5h8.9c1.65 0 3.1.317 4.35.95 1.25.633 2.225 1.517 2.925 2.65.7 1.134 1.05 2.425 1.05 3.875 0 1.184-.241 2.263-.725 3.237a6.87 6.87 0 0 1-2.049 2.463l4.899 9.325h-7.1l-3.775-7.65h-2v7.65h-6.475z"/><path id="M" d="M163.722 59.25h5.325l-1.4-3.375-.675-1.737a18.343 18.343 0 0 1-.625-1.988c-.184.75-.375 1.409-.575 1.975-.2.566-.425 1.15-.675 1.75l-1.375 3.375zm-7.025 8.325l9.725-23.275h.05l9.725 23.275h-3.775l-2.176-5.325h-7.75l-2.174 5.325h-3.625z"/><path id="O" d="M180.931 67.575v-23.25h.05l10.525 13.85 10.324-13.85h.051v23.25h-3.6V59.15c0-.717.012-1.504.038-2.363.024-.858.095-1.846.212-2.962a25.238 25.238 0 0 1-1.5 2.337c-.484.66-.925 1.271-1.326 1.838l-4.274 5.9-4.425-5.9c-.4-.55-.85-1.175-1.35-1.875-.5-.7-1.009-1.475-1.525-2.325a39.92 39.92 0 0 1 .212 2.975c.026.866.038 1.658.038 2.375v8.425h-3.45z"/><path id="S" d="M231.964 55.05h2.55c.916 0 1.662-.171 2.237-.513.575-.341.996-.774 1.263-1.3a3.48 3.48 0 0 0 .399-1.586c0-.984-.358-1.788-1.074-2.413-.717-.625-1.659-.938-2.825-.938h-2.55v6.75zm-3.601 12.525v-22.5h6.25c1.534 0 2.842.304 3.925.912 1.084.609 1.921 1.414 2.513 2.414a6.31 6.31 0 0 1 .888 3.274c0 1.2-.305 2.284-.912 3.25-.61.967-1.447 1.726-2.513 2.275l6.75 10.375h-4.125l-6.075-9.45h-3.1v9.45h-3.601z"/><path id="W" d="M273.396 68.025c-1.634 0-3.162-.305-4.587-.913a12.018 12.018 0 0 1-3.763-2.513 11.725 11.725 0 0 1-2.549-3.724c-.618-1.416-.926-2.934-.926-4.55 0-1.616.308-3.134.926-4.55a11.756 11.756 0 0 1 2.549-3.726 12.067 12.067 0 0 1 3.763-2.512c1.425-.608 2.953-.912 4.587-.912 1.55 0 3.004.271 4.362.812a11.925 11.925 0 0 1 3.614 2.237l-1.051 4.351c-.699-1.134-1.642-2.062-2.824-2.788-1.184-.725-2.526-1.087-4.026-1.087-1.134 0-2.183.212-3.15.637a8.044 8.044 0 0 0-2.537 1.75 8.085 8.085 0 0 0-1.7 2.6 8.278 8.278 0 0 0-.613 3.188 8.27 8.27 0 0 0 .613 3.187 8.012 8.012 0 0 0 4.237 4.35c.967.425 2.016.638 3.15.638 1.5 0 2.842-.363 4.026-1.088 1.182-.725 2.125-1.654 2.824-2.787l1.051 4.35a12.807 12.807 0 0 1-3.625 2.225c-1.351.55-2.801.825-4.351.825"/><path id="Y" d="M291.22 59.25h5.325l-1.4-3.375-.675-1.737a18.343 18.343 0 0 1-.625-1.988c-.184.75-.375 1.409-.575 1.975-.2.566-.425 1.15-.675 1.75l-1.375 3.375zm-7.025 8.325L293.92 44.3h.05l9.725 23.275h-3.775l-2.176-5.325h-7.75l-2.174 5.325h-3.625z"/><path id="aa" d="M314.161 67.975c-1.351 0-2.597-.262-3.738-.787-1.142-.525-2.054-1.154-2.738-1.888l1.026-4.224c.516.983 1.274 1.829 2.274 2.537a5.582 5.582 0 0 0 3.301 1.062c.716 0 1.337-.141 1.862-.425a3.201 3.201 0 0 0 1.238-1.162c.299-.492.45-1.046.45-1.663 0-.682-.167-1.25-.5-1.7a4.391 4.391 0 0 0-1.138-1.087 9.481 9.481 0 0 0-1.062-.612l-2.701-1.375a15.272 15.272 0 0 1-1.912-1.163 6.055 6.055 0 0 1-1.7-1.85c-.459-.76-.687-1.713-.687-2.862 0-1.2.275-2.26.825-3.176.55-.916 1.32-1.633 2.312-2.15.992-.516 2.146-.775 3.462-.775 1.267 0 2.388.213 3.364.638.974.425 1.753.87 2.336 1.338l-.974 4.149a7.721 7.721 0 0 0-2.125-2.024c-.867-.567-1.784-.851-2.75-.851-.917 0-1.638.25-2.163.75-.525.5-.787 1.125-.787 1.875 0 .534.121.984.362 1.35.241.367.546.672.913.913.366.242.725.454 1.074.638l2.726 1.349c.399.2.858.459 1.375.776a8.085 8.085 0 0 1 1.524 1.237c.5.509.913 1.12 1.238 1.838.325.717.488 1.574.488 2.574 0 1.284-.3 2.434-.901 3.45-.599 1.017-1.437 1.82-2.512 2.413-1.074.59-2.329.887-3.762.887"/><path id="ac" d="M332.425 44.954h3.5c0 2.625-.625 4.937-1.917 6.874h-3.645c1.188-1.708 2.062-3.936 2.062-6.874m-6.248 0h3.499c0 2.625-.625 4.937-1.916 6.874h-3.646c1.188-1.708 2.063-3.936 2.063-6.874"/><path id="ae" d="M32.17 87.648h2.22l-.64-3.8c-.18-.92-.32-1.82-.46-2.761h-.04c-.12.94-.26 1.84-.42 2.781l-.66 3.78zm-2.74 4.382l2.66-12.724c.02-.12.1-.16.2-.16h2c.12 0 .18.04.2.16l2.66 12.704c.022.16-.018.24-.138.24h-1.66a.177.177 0 0 1-.181-.14l-.5-2.84h-2.78l-.5 2.82c-.021.1-.08.16-.181.16h-1.64c-.12 0-.16-.08-.14-.22z"/><path id="ag" d="M38.944 92.05v-7.142c0-1.04-.02-1.76-.06-2.22-.02-.16.04-.241.14-.241h1.26c.12 0 .18.04.2.2.04.26.08.66.1 1.02.66-.82 1.44-1.34 2.321-1.34 1.16 0 1.72.78 1.72 2.5v7.223c0 .12-.06.2-.18.2h-1.46c-.1 0-.18-.08-.18-.2v-7.002c0-.74-.22-1.06-.7-1.06-.42 0-.86.28-1.34.86v7.202c0 .12-.08.2-.18.2h-1.46c-.1 0-.18-.08-.18-.2"/><path id="ai" d="M46.754 88.95v-3.262c0-2.24.979-3.36 2.9-3.36 1.82 0 2.84 1.22 2.68 3.16 0 .2-.06.26-.2.26h-1.32c-.1 0-.16-.08-.14-.2.04-1.04-.28-1.56-1-1.56-.78 0-1.1.46-1.1 1.74v3.221c0 1.26.3 1.76 1.1 1.76.7 0 1-.48.96-1.54 0-.16.06-.24.18-.24h1.34c.1 0 .18.08.18.2.02 2.18-.84 3.241-2.66 3.241-1.96 0-2.92-1.12-2.92-3.42"/><path id="ak" d="M54.438 92.05v-9.402c0-.12.08-.201.16-.201h1.5c.08 0 .16.08.16.2v9.403c0 .12-.08.2-.16.2h-1.5c-.08 0-.16-.08-.16-.2m-.22-12.203v-.26c0-.68.42-1.06 1.14-1.06s1.1.38 1.1 1.06v.26c0 .66-.38 1.04-1.1 1.04-.72 0-1.14-.38-1.14-1.04"/><path id="am" d="M62.234 86.408v-.939c0-1.122-.3-1.582-1.04-1.582-.72 0-1.04.481-1.04 1.582v.94h2.08zm-3.9 2.521v-3.28c0-2.24 1-3.322 2.84-3.322 1.88 0 2.86 1.121 2.86 3.341v1.9c0 .141-.08.2-.18.2h-3.7v1.221c0 1.3.3 1.82 1.08 1.82.68 0 .98-.38.96-1.18-.02-.14.04-.22.14-.22h1.4c.12 0 .16.06.16.18.04 1.82-.86 2.781-2.66 2.781-1.96 0-2.9-1.1-2.9-3.44z"/><path id="ao" d="M66.107 92.05v-7.142c0-1.04-.02-1.76-.06-2.22-.02-.16.04-.241.14-.241h1.261c.12 0 .18.04.2.2.04.26.08.66.1 1.02.66-.82 1.44-1.34 2.32-1.34 1.16 0 1.721.78 1.721 2.5v7.223c0 .12-.06.2-.18.2h-1.46c-.1 0-.18-.08-.18-.2v-7.002c0-.74-.22-1.06-.7-1.06-.422 0-.86.28-1.342.86v7.202c0 .12-.08.2-.179.2h-1.46c-.1 0-.18-.08-.18-.2"/><path id="aq" d="M74.753 89.389v-5.28h-.88c-.1 0-.18-.061-.18-.2v-1.261c0-.12.06-.2.18-.2h.94l.2-2.401c.02-.16.06-.2.18-.2h1.22c.1 0 .16.08.16.2v2.4h1.76c.1 0 .18.08.18.2v1.262c0 .139-.08.2-.18.2h-1.76v5.2c0 1.02.22 1.4.84 1.4.32 0 .62-.08.92-.2.14-.04.2.02.2.14v1.26c0 .12-.04.2-.16.24-.36.14-.86.22-1.4.22-1.6 0-2.22-.82-2.22-2.98"/><path id="as" d="M85.594 87.648h2.22l-.64-3.8c-.18-.92-.32-1.82-.46-2.761h-.04c-.12.94-.261 1.84-.42 2.781l-.66 3.78zm-2.741 4.382l2.66-12.724c.02-.12.1-.16.2-.16h2c.12 0 .18.04.2.16l2.66 12.704c.022.16-.018.24-.138.24h-1.66a.177.177 0 0 1-.181-.14l-.5-2.84h-2.78l-.5 2.82c-.021.1-.08.16-.181.16h-1.64c-.12 0-.16-.08-.14-.22z"/><path id="au" d="M92.367 92.05v-7.142c0-1.04-.02-1.76-.06-2.22-.02-.16.04-.241.14-.241h1.3c.08 0 .14.04.16.2.04.32.06.68.08 1.02.68-.82 1.34-1.34 2.261-1.34.74 0 1.28.42 1.5 1.26.64-.76 1.32-1.26 2.16-1.26 1.08 0 1.641.78 1.641 2.322v7.4c0 .12-.06.2-.16.2h-1.48c-.1 0-.18-.08-.18-.2v-7.141c0-.64-.18-.92-.6-.92-.4 0-.822.3-1.26.86v7.202c0 .12-.062.2-.16.2h-1.482c-.099 0-.179-.08-.179-.2v-7.142c0-.64-.2-.92-.62-.92-.38 0-.8.3-1.24.86v7.202c0 .12-.08.2-.18.2h-1.482c-.079 0-.159-.08-.159-.2"/><path id="aw" d="M107.588 86.408v-.939c0-1.122-.301-1.582-1.041-1.582-.72 0-1.04.481-1.04 1.582v.94h2.08zm-3.901 2.521v-3.28c0-2.24 1-3.322 2.84-3.322 1.88 0 2.86 1.121 2.86 3.341v1.9c0 .141-.08.2-.18.2h-3.7v1.221c0 1.3.3 1.82 1.08 1.82.68 0 .98-.38.96-1.18-.02-.14.04-.22.14-.22h1.4c.12 0 .16.06.16.18.04 1.82-.86 2.781-2.66 2.781-1.96 0-2.9-1.1-2.9-3.44z"/><path id="ay" d="M111.46 92.05v-7.142c0-1.04-.02-1.76-.06-2.22-.02-.16.04-.241.14-.241h1.3c.08 0 .14.04.16.2.04.28.06.7.1 1.08.48-.68 1.14-1.4 1.962-1.4.139 0 .219 0 .339.04.12.02.14.12.14.26 0 .54 0 1.08-.06 1.62-.02.14-.06.18-.16.16a1.74 1.74 0 0 0-.48-.06c-.5 0-1.1.36-1.56.94v6.763c0 .12-.08.2-.18.2h-1.481c-.08 0-.16-.08-.16-.2"/><path id="aA" d="M117.467 92.05v-9.402c0-.12.08-.201.159-.201h1.501c.08 0 .16.08.16.2v9.403c0 .12-.08.2-.16.2h-1.501c-.079 0-.159-.08-.159-.2m-.221-12.203v-.26c0-.68.42-1.06 1.141-1.06.72 0 1.101.38 1.101 1.06v.26c0 .66-.381 1.04-1.101 1.04-.721 0-1.141-.38-1.141-1.04"/><path id="aC" d="M121.362 88.95v-3.262c0-2.24.979-3.36 2.9-3.36 1.821 0 2.841 1.22 2.681 3.16 0 .2-.06.26-.2.26h-1.32c-.1 0-.161-.08-.14-.2.04-1.04-.28-1.56-1.001-1.56-.779 0-1.1.46-1.1 1.74v3.221c0 1.26.3 1.76 1.1 1.76.7 0 1.001-.48.961-1.54 0-.16.059-.24.18-.24h1.34c.1 0 .18.08.18.2.02 2.18-.84 3.241-2.661 3.241-1.96 0-2.92-1.12-2.92-3.42"/><path id="aE" d="M131.347 90.81c.34 0 .66-.2 1.141-.82v-2.281l-.601.08c-.82.1-1.2.68-1.2 1.74 0 .82.24 1.28.66 1.28m-2.44-1.06c0-1.84.759-2.94 2.66-3.16l.921-.12v-1.381c0-.94-.141-1.22-.801-1.22-.62 0-.861.38-.78 1.22 0 .12-.06.2-.18.2h-1.28c-.14 0-.22-.06-.241-.24-.139-1.74.741-2.72 2.541-2.72 1.821 0 2.561.76 2.561 2.76v4.7c0 1.122.019 1.822.06 2.242.02.14-.02.22-.121.22h-1.299c-.101 0-.141-.04-.181-.2-.02-.24-.06-.58-.08-.92-.74.88-1.26 1.24-2.04 1.24-1.101 0-1.74-.96-1.74-2.621"/><path id="aG" d="M136.39 89.35c0-.141.061-.2.181-.2h1.38c.08 0 .16.08.16.179-.04 1.1.139 1.54.8 1.54.58 0 .86-.36.86-1.12 0-.64-.22-1.02-.74-1.44l-1.401-1.06c-.8-.62-1.219-1.38-1.219-2.52 0-1.541.86-2.401 2.54-2.401 1.74 0 2.6.98 2.48 2.66 0 .12-.06.18-.18.18h-1.36c-.1 0-.18-.02-.16-.22.06-.72-.2-1.12-.76-1.12-.52 0-.761.3-.761.86 0 .6.201.96.721 1.36l1.34 1.04c.921.72 1.28 1.402 1.28 2.58 0 1.782-.88 2.703-2.66 2.703-1.86 0-2.661-1.042-2.501-3.021"/><path id="aI" d="M146.81 88.169v-4.941c0-2.801 1.221-4.201 3.48-4.201 2.421 0 3.662 1.76 3.362 4.481-.021.12-.08.2-.16.2h-1.54c-.121 0-.181-.101-.161-.24.14-1.78-.32-2.721-1.501-2.721-1.099 0-1.62.761-1.62 2.581v4.721c0 1.841.54 2.6 1.62 2.6 1.261 0 1.641-1.08 1.541-2.74-.02-.14.041-.22.161-.22h1.46c.12 0 .2.06.219.22.181 2.8-.939 4.461-3.381 4.461-2.259 0-3.48-1.341-3.48-4.201"/><path id="aK" d="M159.778 89.03v-3.342c0-1.22-.32-1.7-1.101-1.7-.759 0-1.08.48-1.08 1.7v3.341c0 1.2.341 1.68 1.08 1.68.781 0 1.101-.48 1.101-1.68m-4.001.02v-3.4c0-2.2.98-3.322 2.9-3.322 1.921 0 2.902 1.121 2.902 3.321v3.401c0 2.201-.981 3.321-2.902 3.321-1.92 0-2.9-1.12-2.9-3.32"/><path id="aM" d="M163.733 92.05V78.787c0-.12.08-.2.159-.2h1.501c.08 0 .16.08.16.2V92.05c0 .12-.08.2-.16.2h-1.501c-.079 0-.159-.08-.159-.2"/><path id="aO" d="M167.797 92.05V78.787c0-.12.08-.2.16-.2h1.5c.08 0 .16.08.16.2V92.05c0 .12-.08.2-.16.2h-1.5c-.08 0-.16-.08-.16-.2"/><path id="aQ" d="M175.644 86.408v-.939c0-1.122-.3-1.582-1.04-1.582-.72 0-1.04.481-1.04 1.582v.94h2.08zm-3.9 2.521v-3.28c0-2.24 1-3.322 2.84-3.322 1.88 0 2.861 1.121 2.861 3.341v1.9c0 .141-.08.2-.181.2h-3.7v1.221c0 1.3.3 1.82 1.08 1.82.68 0 .98-.38.96-1.18-.02-.14.04-.22.141-.22h1.4c.119 0 .159.06.159.18.04 1.82-.859 2.781-2.66 2.781-1.961 0-2.9-1.1-2.9-3.44z"/><path id="aS" d="M179.449 88.95v-3.262c0-2.24.979-3.36 2.9-3.36 1.821 0 2.841 1.22 2.681 3.16 0 .2-.06.26-.2.26h-1.32c-.1 0-.161-.08-.14-.2.04-1.04-.28-1.56-1.001-1.56-.779 0-1.1.46-1.1 1.74v3.221c0 1.26.3 1.76 1.1 1.76.7 0 1.001-.48.961-1.54 0-.16.059-.24.18-.24h1.34c.1 0 .18.08.18.2.02 2.18-.84 3.241-2.661 3.241-1.96 0-2.92-1.12-2.92-3.42"/><path id="aU" d="M187.895 89.389v-5.28h-.881c-.099 0-.18-.061-.18-.2v-1.261c0-.12.06-.2.18-.2h.941l.2-2.401c.019-.16.059-.2.179-.2h1.221c.1 0 .16.08.16.2v2.4h1.76c.101 0 .181.08.181.2v1.262c0 .139-.08.2-.181.2h-1.76v5.2c0 1.02.22 1.4.84 1.4.32 0 .62-.08.92-.2.141-.04.2.02.2.14v1.26c0 .12-.04.2-.16.24-.359.14-.859.22-1.4.22-1.6 0-2.22-.82-2.22-2.98"/><path id="aW" d="M193.611 92.05v-9.402c0-.12.08-.201.159-.201h1.501c.08 0 .16.08.16.2v9.403c0 .12-.08.2-.16.2h-1.501c-.079 0-.159-.08-.159-.2m-.221-12.203v-.26c0-.68.42-1.06 1.141-1.06.72 0 1.101.38 1.101 1.06v.26c0 .66-.381 1.04-1.101 1.04-.721 0-1.141-.38-1.141-1.04"/><path id="aY" d="M201.508 89.03v-3.342c0-1.22-.32-1.7-1.101-1.7-.759 0-1.08.48-1.08 1.7v3.341c0 1.2.341 1.68 1.08 1.68.781 0 1.101-.48 1.101-1.68m-4.001.02v-3.4c0-2.2.98-3.322 2.9-3.322 1.921 0 2.902 1.121 2.902 3.321v3.401c0 2.201-.981 3.321-2.902 3.321-1.92 0-2.9-1.12-2.9-3.32"/><path id="ba" d="M205.429 92.05v-7.142c0-1.04-.021-1.76-.061-2.22-.019-.16.04-.241.141-.241h1.26c.12 0 .18.04.2.2.04.26.08.66.1 1.02.66-.82 1.44-1.34 2.321-1.34 1.16 0 1.72.78 1.72 2.5v7.223c0 .12-.06.2-.18.2h-1.461c-.1 0-.18-.08-.18-.2v-7.002c0-.74-.219-1.06-.7-1.06-.42 0-.86.28-1.34.86v7.202c0 .12-.08.2-.18.2h-1.46c-.1 0-.18-.08-.18-.2"/><path id="bc" d="M213.194 89.35c0-.141.06-.2.18-.2h1.381c.079 0 .159.08.159.179-.04 1.1.14 1.54.801 1.54.58 0 .86-.36.86-1.12 0-.64-.221-1.02-.74-1.44l-1.401-1.06c-.801-.62-1.22-1.38-1.22-2.52 0-1.541.86-2.401 2.541-2.401 1.74 0 2.6.98 2.48 2.66 0 .12-.061.18-.181.18h-1.359c-.101 0-.181-.02-.16-.22.059-.72-.2-1.12-.761-1.12-.519 0-.76.3-.76.86 0 .6.201.96.72 1.36l1.341 1.04c.92.72 1.28 1.402 1.28 2.58 0 1.782-.881 2.703-2.661 2.703-1.86 0-2.66-1.042-2.5-3.021"/><path id="be" d="M223.674 92.05v-9.402c0-.12.08-.201.16-.201h1.5c.08 0 .16.08.16.2v9.403c0 .12-.08.2-.16.2h-1.5c-.08 0-.16-.08-.16-.2m-.22-12.203v-.26c0-.68.42-1.06 1.14-1.06.721 0 1.101.38 1.101 1.06v.26c0 .66-.38 1.04-1.101 1.04-.72 0-1.14-.38-1.14-1.04"/><path id="bg" d="M227.756 92.05v-7.142c0-1.04-.02-1.76-.06-2.22-.02-.16.04-.241.14-.241h1.261c.119 0 .18.04.199.2.04.26.08.66.101 1.02.66-.82 1.44-1.34 2.32-1.34 1.16 0 1.721.78 1.721 2.5v7.223c0 .12-.061.2-.181.2h-1.46c-.1 0-.18-.08-.18-.2v-7.002c0-.74-.22-1.06-.7-1.06-.421 0-.86.28-1.341.86v7.202c0 .12-.08.2-.179.2h-1.461c-.1 0-.18-.08-.18-.2"/><path id="bi" d="M240.936 87.648h2.22l-.64-3.8c-.18-.92-.32-1.82-.46-2.761h-.04c-.12.94-.261 1.84-.42 2.781l-.66 3.78zm-2.741 4.382l2.661-12.724c.019-.12.1-.16.2-.16h2c.12 0 .18.04.2.16l2.66 12.704c.021.16-.019.24-.139.24h-1.66a.177.177 0 0 1-.181-.14l-.5-2.84h-2.78l-.5 2.82c-.021.1-.08.16-.181.16h-1.64c-.12 0-.16-.08-.14-.22z"/><path id="bk" d="M247.71 92.05v-7.142c0-1.04-.021-1.76-.061-2.22-.019-.16.04-.241.141-.241h1.3c.08 0 .14.04.16.2.04.28.06.7.1 1.08.48-.68 1.14-1.4 1.961-1.4.139 0 .219 0 .339.04.121.02.14.12.14.26 0 .54 0 1.08-.059 1.62-.021.14-.06.18-.161.16a1.74 1.74 0 0 0-.48-.06c-.5 0-1.1.36-1.56.94v6.763c0 .12-.08.2-.18.2h-1.481c-.079 0-.159-.08-.159-.2"/><path id="bm" d="M254.529 89.389v-5.28h-.88c-.1 0-.18-.061-.18-.2v-1.261c0-.12.06-.2.18-.2h.941l.199-2.401c.02-.16.06-.2.18-.2h1.22c.101 0 .16.08.16.2v2.4h1.761c.1 0 .18.08.18.2v1.262c0 .139-.08.2-.18.2h-1.761v5.2c0 1.02.221 1.4.841 1.4.319 0 .62-.08.92-.2.14-.04.2.02.2.14v1.26c0 .12-.04.2-.16.24-.36.14-.86.22-1.4.22-1.601 0-2.221-.82-2.221-2.98"/><path id="bo" d="M263.409 92.05l.181-12.703c0-.12.059-.2.179-.2h2c.101 0 .181.04.201.16l1.84 7.262 1.861-7.262c.019-.12.099-.16.219-.16h2.001c.1 0 .16.08.16.2l.18 12.703c0 .12-.08.2-.18.2h-1.48c-.12 0-.181-.08-.181-.2l-.059-7.062a46.4 46.4 0 0 1 .059-2.98h-.019c-.181.84-.42 1.7-.66 2.5l-1.66 5.86c-.04.12-.101.16-.201.16h-.08c-.08 0-.14-.04-.16-.16l-1.7-5.88c-.24-.8-.46-1.64-.641-2.48h-.04c.061.9.101 1.92.101 2.98l-.08 7.062c0 .12-.061.2-.181.2h-1.5c-.08 0-.16-.08-.16-.2"/><path id="bq" d="M274.47 89.87v-7.202c0-.14.08-.22.18-.22h1.46c.1 0 .18.08.18.22v7.001c0 .82.16 1.04.62 1.04.44 0 .88-.319 1.3-.84v-7.2c0-.142.061-.222.181-.222h1.46c.12 0 .18.08.18.221v7.121c0 1.04 0 1.761.06 2.221.02.16-.04.24-.16.24h-1.261c-.12 0-.16-.06-.179-.2-.041-.26-.06-.64-.081-.98-.639.78-1.4 1.3-2.2 1.3-1.28 0-1.74-.78-1.74-2.5"/><path id="bs" d="M282.112 89.35c0-.141.061-.2.181-.2h1.38c.08 0 .16.08.16.179-.04 1.1.139 1.54.8 1.54.58 0 .86-.36.86-1.12 0-.64-.22-1.02-.74-1.44l-1.401-1.06c-.8-.62-1.219-1.38-1.219-2.52 0-1.541.86-2.401 2.54-2.401 1.74 0 2.6.98 2.48 2.66 0 .12-.06.18-.18.18h-1.36c-.1 0-.18-.02-.16-.22.06-.72-.2-1.12-.76-1.12-.52 0-.761.3-.761.86 0 .6.201.96.721 1.36l1.34 1.04c.921.72 1.28 1.402 1.28 2.58 0 1.782-.88 2.703-2.66 2.703-1.86 0-2.661-1.042-2.501-3.021"/><path id="bu" d="M293.14 86.408v-.939c0-1.122-.301-1.582-1.041-1.582-.72 0-1.04.481-1.04 1.582v.94h2.081zm-3.901 2.521v-3.28c0-2.24 1-3.322 2.84-3.322 1.881 0 2.861 1.121 2.861 3.341v1.9c0 .141-.08.2-.18.2h-3.701v1.221c0 1.3.301 1.82 1.08 1.82.681 0 .98-.38.961-1.18-.021-.14.04-.22.14-.22h1.4c.12 0 .16.06.16.18.04 1.82-.86 2.781-2.661 2.781-1.96 0-2.9-1.1-2.9-3.44z"/><path id="bw" d="M297.013 89.87v-7.202c0-.14.08-.22.18-.22h1.461c.099 0 .179.08.179.22v7.001c0 .82.16 1.04.62 1.04.441 0 .881-.319 1.301-.84v-7.2c0-.142.06-.222.18-.222h1.46c.12 0 .181.08.181.221v7.121c0 1.04 0 1.761.059 2.221.021.16-.04.24-.16.24h-1.26c-.12 0-.16-.06-.18-.2-.04-.26-.06-.64-.08-.98-.64.78-1.4 1.3-2.201 1.3-1.28 0-1.74-.78-1.74-2.5"/><path id="by" d="M304.852 92.05v-7.142c0-1.04-.021-1.76-.061-2.22-.019-.16.04-.241.141-.241h1.3c.08 0 .14.04.16.2.04.32.06.68.08 1.02.68-.82 1.34-1.34 2.261-1.34.74 0 1.28.42 1.5 1.26.64-.76 1.32-1.26 2.16-1.26 1.08 0 1.641.78 1.641 2.322v7.4c0 .12-.061.2-.161.2h-1.48c-.1 0-.18-.08-.18-.2v-7.141c0-.64-.179-.92-.6-.92-.4 0-.821.3-1.26.86v7.202c0 .12-.061.2-.16.2h-1.481c-.099 0-.179-.08-.179-.2v-7.142c0-.64-.201-.92-.62-.92-.38 0-.801.3-1.241.86v7.202c0 .12-.08.2-.18.2h-1.481c-.079 0-.159-.08-.159-.2"/><path id="bA" d="M316.132 89.35c0-.141.061-.2.181-.2h1.38c.08 0 .16.08.16.179-.04 1.1.139 1.54.8 1.54.58 0 .86-.36.86-1.12 0-.64-.22-1.02-.74-1.44l-1.401-1.06c-.8-.62-1.219-1.38-1.219-2.52 0-1.541.86-2.401 2.54-2.401 1.74 0 2.6.98 2.48 2.66 0 .12-.06.18-.18.18h-1.36c-.1 0-.18-.02-.16-.22.06-.72-.2-1.12-.76-1.12-.52 0-.761.3-.761.86 0 .6.201.96.721 1.36l1.34 1.04c.921.72 1.28 1.402 1.28 2.58 0 1.782-.88 2.703-2.66 2.703-1.86 0-2.661-1.042-2.501-3.021"/><path id="e" d="M82.434 33.25L82.434 10.75 86.184 10.75 86.184 29.95 93.459 29.95 93.459 33.25z"/><path id="g" d="M100.835 33.25L100.835 10.75 104.585 10.75 104.585 29.95 111.86 29.95 111.86 33.25z"/><path id="i" d="M119.236 33.25L119.236 10.75 130.787 10.75 130.787 13.975 122.837 13.975 122.837 18.1 129.037 18.1 129.037 21.25 122.837 21.25 122.837 29.95 130.787 29.95 130.787 33.25z"/><path id="m" d="M167.144 33.25L167.144 14.05 161.394 14.05 161.394 10.75 176.644 10.75 176.644 14.05 170.894 14.05 170.894 33.25z"/><path id="o" d="M184.088 33.25L187.838 33.25 187.838 10.75 184.088 10.75z"/><path id="q" d="M215.559 34L200.984 18.825 200.984 33.25 197.534 33.25 197.534 10 197.584 10 212.159 25.175 212.159 10.75 215.609 10.75 215.609 34z"/><path id="u" d="M267.78 33.25L267.78 14.05 262.03 14.05 262.03 10.75 277.28 10.75 277.28 14.05 271.53 14.05 271.53 33.25z"/><path id="w" d="M284.614 33.25L284.614 10.75 288.215 10.75 288.215 18.024 295.465 18.024 295.465 10.75 299.064 10.75 299.064 33.25 295.465 33.25 295.465 21.325 288.215 21.325 288.215 33.25z"/><path id="y" d="M308.664 33.25L308.664 10.75 320.214 10.75 320.214 13.975 312.264 13.975 312.264 18.1 318.464 18.1 318.464 21.25 312.264 21.25 312.264 29.95 320.214 29.95 320.214 33.25z"/><path id="E" d="M61.203 67.575L61.203 50.825 56.478 50.825 56.478 45.075 72.703 45.075 72.703 50.825 67.978 50.825 67.978 67.575z"/><path id="G" d="M78.223 67.575L78.223 45.075 84.823 45.075 84.823 51.95 90.047 51.95 90.047 45.075 96.648 45.075 96.648 67.575 90.047 67.575 90.047 57.675 84.823 57.675 84.823 67.575z"/><path id="I" d="M103.889 67.575L103.889 45.075 117.338 45.075 117.338 50.425 110.264 50.425 110.264 53.099 116.114 53.099 116.114 57.65 110.264 57.65 110.264 62.05 117.338 62.05 117.338 67.575z"/><path id="Q" d="M209.518 67.575L209.518 45.075 221.069 45.075 221.069 48.3 213.119 48.3 213.119 52.425 219.319 52.425 219.319 55.575 213.119 55.575 213.119 64.275 221.069 64.275 221.069 67.575z"/><path id="U" d="M251.165 67.576L254.915 67.576 254.915 45.076 251.165 45.076z"/></defs><g fill="none" fill-rule="evenodd"><use xlink:href="#a" fill="#000" filter="url(#b)"/><use xlink:href="#a" fill="#FFF"/><use xlink:href="#c" fill="#000" filter="url(#d)"/><use xlink:href="#c" fill="#FFF"/><use xlink:href="#e" fill="#000" filter="url(#f)"/><use xlink:href="#e" fill="#FFF"/><use xlink:href="#g" fill="#000" filter="url(#h)"/><use xlink:href="#g" fill="#FFF"/><use xlink:href="#i" fill="#000" filter="url(#j)"/><use xlink:href="#i" fill="#FFF"/><use xlink:href="#k" fill="#000" filter="url(#l)"/><use xlink:href="#k" fill="#FFF"/><use xlink:href="#m" fill="#000" filter="url(#n)"/><use xlink:href="#m" fill="#FFF"/><use xlink:href="#o" fill="#000" filter="url(#p)"/><use xlink:href="#o" fill="#FFF"/><use xlink:href="#q" fill="#000" filter="url(#r)"/><use xlink:href="#q" fill="#FFF"/><use xlink:href="#s" fill="#000" filter="url(#t)"/><use xlink:href="#s" fill="#FFF"/><use xlink:href="#u" fill="#000" filter="url(#v)"/><use xlink:href="#u" fill="#FFF"/><use xlink:href="#w" fill="#000" filter="url(#x)"/><use xlink:href="#w" fill="#FFF"/><use xlink:href="#y" fill="#000" filter="url(#z)"/><use xlink:href="#y" fill="#FFF"/><use xlink:href="#A" fill="#000" filter="url(#B)"/><use xlink:href="#A" fill="#FFF"/><use xlink:href="#C" fill="#000" filter="url(#D)"/><use xlink:href="#C" fill="#FFF"/><use xlink:href="#E" fill="#000" filter="url(#F)"/><use xlink:href="#E" fill="#FFF"/><use xlink:href="#G" fill="#000" filter="url(#H)"/><use xlink:href="#G" fill="#FFF"/><use xlink:href="#I" fill="#000" filter="url(#J)"/><use xlink:href="#I" fill="#FFF"/><use xlink:href="#K" fill="#000" filter="url(#L)"/><use xlink:href="#K" fill="#FFF"/><use xlink:href="#M" fill="#000" filter="url(#N)"/><use xlink:href="#M" fill="#FFF"/><use xlink:href="#O" fill="#000" filter="url(#P)"/><use xlink:href="#O" fill="#FFF"/><use xlink:href="#Q" fill="#000" filter="url(#R)"/><use xlink:href="#Q" fill="#FFF"/><use xlink:href="#S" fill="#000" filter="url(#T)"/><use xlink:href="#S" fill="#FFF"/><use xlink:href="#U" fill="#000" filter="url(#V)"/><use xlink:href="#U" fill="#FFF"/><use xlink:href="#W" fill="#000" filter="url(#X)"/><use xlink:href="#W" fill="#FFF"/><use xlink:href="#Y" fill="#000" filter="url(#Z)"/><use xlink:href="#Y" fill="#FFF"/><use xlink:href="#aa" fill="#000" filter="url(#ab)"/><use xlink:href="#aa" fill="#FFF"/><use xlink:href="#ac" fill="#000" filter="url(#ad)"/><use xlink:href="#ac" fill="#FFF"/><use xlink:href="#ae" fill="#000" filter="url(#af)"/><use xlink:href="#ae" fill="#FFF"/><use xlink:href="#ag" fill="#000" filter="url(#ah)"/><use xlink:href="#ag" fill="#FFF"/><use xlink:href="#ai" fill="#000" filter="url(#aj)"/><use xlink:href="#ai" fill="#FFF"/><use xlink:href="#ak" fill="#000" filter="url(#al)"/><use xlink:href="#ak" fill="#FFF"/><use xlink:href="#am" fill="#000" filter="url(#an)"/><use xlink:href="#am" fill="#FFF"/><use xlink:href="#ao" fill="#000" filter="url(#ap)"/><use xlink:href="#ao" fill="#FFF"/><use xlink:href="#aq" fill="#000" filter="url(#ar)"/><use xlink:href="#aq" fill="#FFF"/><use xlink:href="#as" fill="#000" filter="url(#at)"/><use xlink:href="#as" fill="#FFF"/><use xlink:href="#au" fill="#000" filter="url(#av)"/><use xlink:href="#au" fill="#FFF"/><use xlink:href="#aw" fill="#000" filter="url(#ax)"/><use xlink:href="#aw" fill="#FFF"/><use xlink:href="#ay" fill="#000" filter="url(#az)"/><use xlink:href="#ay" fill="#FFF"/><use xlink:href="#aA" fill="#000" filter="url(#aB)"/><use xlink:href="#aA" fill="#FFF"/><use xlink:href="#aC" fill="#000" filter="url(#aD)"/><use xlink:href="#aC" fill="#FFF"/><use xlink:href="#aE" fill="#000" filter="url(#aF)"/><use xlink:href="#aE" fill="#FFF"/><use xlink:href="#aG" fill="#000" filter="url(#aH)"/><use xlink:href="#aG" fill="#FFF"/><use xlink:href="#aI" fill="#000" filter="url(#aJ)"/><use xlink:href="#aI" fill="#FFF"/><use xlink:href="#aK" fill="#000" filter="url(#aL)"/><use xlink:href="#aK" fill="#FFF"/><use xlink:href="#aM" fill="#000" filter="url(#aN)"/><use xlink:href="#aM" fill="#FFF"/><use xlink:href="#aO" fill="#000" filter="url(#aP)"/><use xlink:href="#aO" fill="#FFF"/><use xlink:href="#aQ" fill="#000" filter="url(#aR)"/><use xlink:href="#aQ" fill="#FFF"/><use xlink:href="#aS" fill="#000" filter="url(#aT)"/><use xlink:href="#aS" fill="#FFF"/><use xlink:href="#aU" fill="#000" filter="url(#aV)"/><use xlink:href="#aU" fill="#FFF"/><use xlink:href="#aW" fill="#000" filter="url(#aX)"/><use xlink:href="#aW" fill="#FFF"/><use xlink:href="#aY" fill="#000" filter="url(#aZ)"/><use xlink:href="#aY" fill="#FFF"/><use xlink:href="#ba" fill="#000" filter="url(#bb)"/><use xlink:href="#ba" fill="#FFF"/><use xlink:href="#bc" fill="#000" filter="url(#bd)"/><use xlink:href="#bc" fill="#FFF"/><use xlink:href="#be" fill="#000" filter="url(#bf)"/><use xlink:href="#be" fill="#FFF"/><use xlink:href="#bg" fill="#000" filter="url(#bh)"/><use xlink:href="#bg" fill="#FFF"/><use xlink:href="#bi" fill="#000" filter="url(#bj)"/><use xlink:href="#bi" fill="#FFF"/><use xlink:href="#bk" fill="#000" filter="url(#bl)"/><use xlink:href="#bk" fill="#FFF"/><use xlink:href="#bm" fill="#000" filter="url(#bn)"/><use xlink:href="#bm" fill="#FFF"/><use xlink:href="#bo" fill="#000" filter="url(#bp)"/><use xlink:href="#bo" fill="#FFF"/><use xlink:href="#bq" fill="#000" filter="url(#br)"/><use xlink:href="#bq" fill="#FFF"/><use xlink:href="#bs" fill="#000" filter="url(#bt)"/><use xlink:href="#bs" fill="#FFF"/><use xlink:href="#bu" fill="#000" filter="url(#bv)"/><use xlink:href="#bu" fill="#FFF"/><use xlink:href="#bw" fill="#000" filter="url(#bx)"/><use xlink:href="#bw" fill="#FFF"/><use xlink:href="#by" fill="#000" filter="url(#bz)"/><use xlink:href="#by" fill="#FFF"/><use xlink:href="#bA" fill="#000" filter="url(#bB)"/><use xlink:href="#bA" fill="#FFF"/></g></svg>