<svg height="63" viewBox="0 0 323 63" width="323" xmlns="http://www.w3.org/2000/svg"><g fill="#fff" fill-rule="evenodd"><path d="m25.54 26.7002c-1.634 0-3.162-.305-4.587-.913-1.426-.608-2.68-1.445-3.763-2.513-1.084-1.066-1.933-2.307-2.549-3.724-.618-1.416-.926-2.934-.926-4.55s.308-3.134.926-4.55c.616-1.417 1.465-2.658 2.549-3.726 1.083-1.066 2.337-1.903 3.763-2.512 1.425-.608 2.953-.912 4.587-.912 1.55 0 3.004.271 4.362.812 1.359.542 2.563 1.287 3.614 2.237l-1.051 4.351c-.699-1.134-1.642-2.062-2.824-2.788-1.184-.725-2.526-1.087-4.026-1.087-1.134 0-2.183.212-3.15.637-.967.426-1.813 1.009-2.537 1.75-.725.742-1.292 1.609-1.7 2.6-.409.992-.613 2.054-.613 3.188s.204 2.196.613 3.187c.408.992.975 1.859 1.7 2.6.724.742 1.57 1.325 2.537 1.75s2.016.638 3.15.638c1.5 0 2.842-.363 4.026-1.088 1.182-.725 2.125-1.654 2.824-2.787l1.051 4.349c-1.068.934-2.276 1.676-3.625 2.226-1.351.55-2.801.825-4.351.825m23.3135-3.5254c1.133 0 2.183-.213 3.149-.638.967-.424 1.813-1.008 2.538-1.75.725-.741 1.292-1.608 1.701-2.599.408-.992.612-2.054.612-3.188s-.204-2.196-.612-3.187c-.409-.992-.976-1.859-1.701-2.601-.725-.741-1.571-1.324-2.538-1.75-.966-.425-2.016-.637-3.149-.637-1.134 0-2.184.212-3.15.637-.967.426-1.813 1.009-2.537 1.75-.726.742-1.292 1.609-1.701 2.601-.408.991-.612 2.053-.612 3.187s.204 2.196.612 3.188c.409.991.975 1.858 1.701 2.599.724.742 1.57 1.326 2.537 1.75.966.425 2.016.638 3.15.638m0 3.525c-1.634 0-3.163-.304-4.588-.913-1.425-.608-2.679-1.445-3.763-2.512-1.083-1.067-1.933-2.308-2.549-3.725-.617-1.416-.925-2.934-.925-4.55s.308-3.134.925-4.55c.616-1.417 1.466-2.658 2.549-3.725 1.084-1.067 2.338-1.904 3.763-2.513 1.425-.607 2.954-.912 4.588-.912 1.649 0 3.188.305 4.612.912 1.425.609 2.679 1.446 3.763 2.513 1.083 1.067 1.929 2.308 2.537 3.725.609 1.416.913 2.934.913 4.55s-.304 3.134-.913 4.55c-.608 1.417-1.454 2.658-2.537 3.725-1.084 1.067-2.338 1.904-3.763 2.512-1.424.609-2.963.913-4.612.913"/><path d="m67.434 26.25v-22.5h3.75v19.2h7.275v3.3z"/><path d="m85.835 26.25v-22.5h3.75v19.2h7.275v3.3z"/><path d="m104.236 26.25v-22.5h11.551v3.225h-7.95v4.125h6.2v3.15h-6.2v8.7h7.95v3.3z"/><path d="m133.875 26.7002c-1.634 0-3.163-.305-4.588-.913s-2.679-1.445-3.763-2.513c-1.083-1.066-1.933-2.307-2.549-3.724-.617-1.416-.925-2.934-.925-4.55s.308-3.134.925-4.55c.616-1.417 1.466-2.658 2.549-3.726 1.084-1.066 2.338-1.903 3.763-2.512 1.425-.608 2.954-.912 4.588-.912 1.55 0 3.004.271 4.362.812 1.359.542 2.563 1.287 3.613 2.237l-1.05 4.351c-.7-1.134-1.642-2.062-2.825-2.788-1.184-.725-2.525-1.087-4.025-1.087-1.134 0-2.183.212-3.15.637-.967.426-1.813 1.009-2.537 1.75-.726.742-1.292 1.609-1.7 2.6-.41.992-.613 2.054-.613 3.188s.203 2.196.613 3.187c.408.992.974 1.859 1.7 2.6.724.742 1.57 1.325 2.537 1.75s2.016.638 3.15.638c1.5 0 2.841-.363 4.025-1.088 1.183-.725 2.125-1.654 2.825-2.787l1.05 4.349c-1.067.934-2.275 1.676-3.625 2.226s-2.8.825-4.35.825"/><path d="m152.144 26.25v-19.2h-5.75v-3.3h15.25v3.3h-5.75v19.2z"/><path d="m169.088 26.25h3.75v-22.5h-3.75z"/><path d="m200.559 27-14.575-15.175v14.425h-3.45v-23.25h.05l14.575 15.175v-14.425h3.45v23.25z"/><path d="m220.01 26.7002c-1.667 0-3.221-.297-4.662-.888-1.442-.591-2.709-1.421-3.8-2.487-1.092-1.066-1.942-2.305-2.551-3.713-.608-1.408-.912-2.937-.912-4.588 0-1.649.309-3.182.925-4.599.616-1.416 1.471-2.659 2.562-3.725 1.092-1.066 2.355-1.9 3.789-2.5 1.432-.601 2.982-.9 4.649-.9 1.566 0 3.033.271 4.4.812 1.367.542 2.576 1.287 3.625 2.237l-1.049 4.3c-.701-1.133-1.651-2.062-2.851-2.787-1.2-.724-2.575-1.088-4.125-1.088-1.149 0-2.217.209-3.2.625-.984.417-1.842 1-2.574 1.75-.735.75-1.305 1.625-1.713 2.625-.409 1-.613 2.084-.613 3.25 0 1.551.354 2.95 1.063 4.2.708 1.25 1.671 2.238 2.888 2.963 1.215.725 2.59 1.087 4.125 1.087.816 0 1.578-.087 2.287-.262.708-.175 1.353-.437 1.937-.788v-5.125h-5.4v-3.149h8.825v10.399c-1.033.767-2.204 1.351-3.513 1.75-1.308.401-2.678.601-4.112.601"/><path d="m252.78 26.25v-19.2h-5.75v-3.3h15.25v3.3h-5.75v19.2z"/><path d="m269.614 26.25v-22.5h3.601v7.274h7.25v-7.274h3.599v22.5h-3.599v-11.925h-7.25v11.925z"/><path d="m293.664 26.25v-22.5h11.55v3.225h-7.95v4.125h6.2v3.15h-6.2v8.7h7.95v3.3z"/><path d="m8.25 44.8252c0-1.319.16-2.553.479-3.698.32-1.146.799-2.205 1.438-3.177h3.645c-.596.847-1.089 1.837-1.478 2.969-.39 1.132-.584 2.433-.584 3.906zm-6.25 0c0-1.319.16-2.553.479-3.698.32-1.146.799-2.205 1.438-3.177h3.646c-.597.847-1.09 1.837-1.479 2.969-.39 1.132-.584 2.433-.584 3.906zm24.5898 9.75c.75 0 1.441-.138 2.075-.413.633-.274 1.192-.653 1.675-1.137.483-.483.854-1.042 1.112-1.676.259-.632.388-1.316.388-2.049 0-.716-.129-1.388-.388-2.013-.258-.625-.629-1.179-1.112-1.662-.483-.484-1.042-.863-1.675-1.138-.634-.274-1.325-.412-2.075-.412-.733 0-1.417.138-2.05.412-.634.275-1.192.654-1.675 1.138-.484.483-.854 1.037-1.113 1.662-.258.625-.387 1.297-.387 2.013 0 .733.129 1.417.387 2.049.259.634.629 1.193 1.113 1.676.483.484 1.041.863 1.675 1.137.633.275 1.317.413 2.05.413m0 6.5c-1.667 0-3.229-.305-4.687-.913-1.459-.608-2.734-1.449-3.826-2.524-1.091-1.076-1.946-2.322-2.562-3.738-.616-1.417-.925-2.941-.925-4.575s.309-3.158.925-4.575c.616-1.416 1.471-2.662 2.562-3.738 1.092-1.075 2.367-1.916 3.826-2.525 1.458-.608 3.02-.912 4.687-.912 1.666 0 3.229.304 4.687.912 1.459.609 2.738 1.45 3.838 2.525 1.1 1.076 1.958 2.322 2.575 3.738.617 1.417.925 2.941.925 4.575s-.308 3.158-.925 4.575c-.617 1.416-1.475 2.662-2.575 3.738-1.1 1.075-2.379 1.916-3.838 2.524-1.458.608-3.021.913-4.687.913"/><path d="m46.203 60.575v-16.75h-4.725v-5.75h16.225v5.75h-4.725v16.75z"/><path d="m63.223 60.575v-22.5h6.6v6.875h5.224v-6.875h6.601v22.5h-6.601v-9.9h-5.224v9.9z"/><path d="m88.889 60.575v-22.5h13.449v5.35h-7.074v2.674h5.85v4.551h-5.85v4.4h7.074v5.525z"/><path d="m115.637 48.0498h1.625c.566 0 1.042-.104 1.425-.312.384-.209.679-.496.888-.863.208-.366.312-.783.312-1.25 0-.733-.246-1.32-.737-1.762-.492-.442-1.121-.663-1.888-.663h-1.625zm-6.475 12.525v-22.5h8.9c1.65 0 3.1.317 4.35.951 1.25.632 2.225 1.516 2.925 2.649.7 1.134 1.05 2.425 1.05 3.875 0 1.184-.241 2.263-.725 3.237-.483.976-1.167 1.797-2.049 2.463l4.899 9.325h-7.1l-3.775-7.65h-2v7.65zm39.56-8.3248h5.325l-1.4-3.375c-.234-.6-.459-1.179-.675-1.737-.217-.559-.425-1.221-.625-1.988-.184.75-.375 1.409-.575 1.975s-.425 1.15-.675 1.75zm-7.025 8.325 9.725-23.275h.05l9.725 23.275h-3.775l-2.176-5.325h-7.75l-2.174 5.325zm24.234.0002v-23.25h.05l10.525 13.85 10.324-13.85h.051v23.25h-3.6v-8.425c0-.717.012-1.504.038-2.363.024-.858.095-1.846.212-2.962-.517.899-1.017 1.679-1.5 2.337-.484.659-.925 1.271-1.326 1.838l-4.274 5.9-4.425-5.9c-.4-.55-.85-1.175-1.35-1.875s-1.009-1.475-1.525-2.325c.116 1.117.188 2.108.212 2.975.026.866.038 1.658.038 2.375v8.425z"/><path d="m194.518 60.575v-22.5h11.551v3.225h-7.95v4.125h6.2v3.15h-6.2v8.7h7.95v3.3z"/><path d="m216.964 48.0498h2.55c.916 0 1.662-.171 2.237-.513.575-.341.996-.774 1.263-1.299.266-.525.399-1.054.399-1.587 0-.984-.358-1.788-1.074-2.413-.717-.625-1.659-.938-2.825-.938h-2.55zm-3.601 12.525v-22.5h6.25c1.534 0 2.842.304 3.925.912 1.084.609 1.921 1.414 2.513 2.414s.888 2.091.888 3.274c0 1.2-.305 2.284-.912 3.25-.61.967-1.447 1.726-2.513 2.275l6.75 10.375h-4.125l-6.075-9.45h-3.1v9.45z"/><path d="m236.165 60.576h3.75v-22.5h-3.75z"/><path d="m258.396 61.0254c-1.634 0-3.162-.305-4.587-.913-1.426-.608-2.68-1.445-3.763-2.513-1.084-1.066-1.933-2.307-2.549-3.724-.618-1.416-.926-2.934-.926-4.55s.308-3.134.926-4.55c.616-1.417 1.465-2.658 2.549-3.726 1.083-1.066 2.337-1.903 3.763-2.512 1.425-.608 2.953-.912 4.587-.912 1.55 0 3.004.271 4.362.812 1.359.542 2.563 1.287 3.614 2.237l-1.051 4.351c-.699-1.134-1.642-2.062-2.824-2.788-1.184-.725-2.526-1.087-4.026-1.087-1.134 0-2.183.212-3.15.637-.967.426-1.813 1.009-2.537 1.75-.725.742-1.292 1.609-1.7 2.6-.409.992-.613 2.054-.613 3.188s.204 2.196.613 3.187c.408.992.975 1.859 1.7 2.6.724.742 1.57 1.325 2.537 1.75s2.016.638 3.15.638c1.5 0 2.842-.363 4.026-1.088 1.182-.725 2.125-1.654 2.824-2.787l1.051 4.349c-1.068.934-2.276 1.676-3.625 2.226-1.351.55-2.801.825-4.351.825m17.824-8.7754h5.325l-1.4-3.375c-.234-.6-.459-1.179-.675-1.737-.217-.559-.425-1.221-.625-1.988-.184.75-.375 1.409-.575 1.975s-.425 1.15-.675 1.75zm-7.025 8.325 9.725-23.275h.05l9.725 23.275h-3.775l-2.176-5.325h-7.75l-2.174 5.325zm29.966.3996c-1.351 0-2.597-.262-3.738-.787-1.142-.525-2.054-1.154-2.738-1.888l1.026-4.224c.516.983 1.274 1.829 2.274 2.537 1 .709 2.101 1.062 3.301 1.062.716 0 1.337-.141 1.862-.425.525-.283.938-.671 1.238-1.162.299-.492.45-1.046.45-1.663 0-.682-.167-1.25-.5-1.7-.334-.449-.713-.813-1.138-1.087-.425-.275-.779-.479-1.062-.612l-2.701-1.375c-.599-.301-1.237-.688-1.912-1.163-.674-.475-1.242-1.091-1.7-1.85-.459-.759-.687-1.713-.687-2.862 0-1.2.275-2.259.825-3.176.55-.916 1.32-1.633 2.312-2.149.992-.517 2.146-.776 3.462-.776 1.267 0 2.388.213 3.364.638.974.425 1.753.871 2.336 1.338l-.974 4.149c-.55-.783-1.259-1.458-2.125-2.024-.867-.567-1.784-.851-2.75-.851-.917 0-1.638.25-2.163.75s-.787 1.125-.787 1.875c0 .534.121.984.362 1.351.241.366.546.671.913.912.366.242.725.454 1.074.638l2.726 1.349c.399.2.858.459 1.375.776.516.316 1.024.729 1.524 1.237.5.509.913 1.121 1.238 1.838s.488 1.574.488 2.574c0 1.284-.3 2.434-.901 3.45-.599 1.017-1.437 1.821-2.512 2.413-1.074.591-2.329.887-3.762.887m18.264-23.0205h3.5c0 2.625-.625 4.937-1.917 6.874h-3.645c1.188-1.708 2.062-3.936 2.062-6.874m-6.248 0h3.499c0 2.625-.625 4.937-1.916 6.874h-3.646c1.188-1.708 2.063-3.936 2.063-6.874"/></g></svg>